M48
; DRILL file {KiCad (6.0.9)} date Wed Jan  4 22:16:28 2023
; FORMAT={-:-/ absolute / metric / decimal}
; #@! TF.CreationDate,2023-01-04T22:16:28+09:00
; #@! TF.GenerationSoftware,Kicad,Pcbnew,(6.0.9)
; #@! TF.FileFunction,Plated,1,2,PTH
FMAT,2
METRIC
; #@! TA.AperFunction,Plated,PTH,ViaDrill
T1C0.400
; #@! TA.AperFunction,Plated,PTH,ComponentDrill
T2C0.800
%
G90
G05
T1
X104.12Y-41.67
X104.12Y-113.5
X104.13Y-60.81
X104.14Y-36.2
X104.14Y-56.35
X104.14Y-122.5
X104.15Y-78.51
X104.16Y-117.95
X104.21Y-95.39
X105.272Y-100.12
X105.81Y-84.0
X106.04Y-119.8
X106.49Y-55.35
X107.031Y-85.041
X107.32Y-79.88
X107.518Y-104.115
X107.76Y-71.92
X107.96Y-92.89
X108.509Y-74.981
X108.53Y-112.43
X108.74Y-69.35
X108.84Y-95.52
X108.97Y-103.95
X109.17Y-31.23
X109.19Y-127.37
X109.79Y-55.06
X110.37Y-110.97
X110.66Y-44.07
X110.73Y-63.29
X110.74Y-120.5
X111.0Y-49.45
X111.17Y-55.13
X111.55Y-90.5
X111.57Y-100.91
X112.13Y-93.02
X112.42Y-88.544
X112.53Y-98.91
X113.16Y-38.14
X113.23Y-82.37
X114.426Y-70.714
X115.11Y-44.16
X116.027Y-68.58
X116.91Y-59.68
X117.3Y-109.88
X117.907Y-77.724
X117.95Y-101.52
X118.03Y-106.53
X118.1Y-58.28
X118.73Y-48.92
X119.25Y-123.51
X119.276Y-53.698
X119.278Y-59.131
X120.45Y-65.78
X121.079Y-38.129
X121.615Y-73.152
X121.71Y-114.24
X121.95Y-101.5
X122.05Y-122.77
X122.462Y-68.8
X122.53Y-49.124
X122.58Y-71.34
X122.6Y-88.62
X122.86Y-51.63
X122.87Y-111.34
X123.22Y-109.87
X123.58Y-97.37
X123.596Y-84.887
X123.73Y-33.87
X123.78Y-44.83
X124.6Y-114.23
X125.0Y-83.11
X125.23Y-104.05
X125.679Y-75.082
X126.441Y-86.208
X126.441Y-112.319
X126.644Y-70.714
X126.712Y-91.453
X127.13Y-46.62
X127.32Y-113.44
X127.44Y-127.39
X127.49Y-92.08
X127.61Y-34.33
X128.305Y-88.635
X128.47Y-75.31
X129.29Y-37.21
X129.29Y-62.61
X130.701Y-34.515
X131.72Y-119.59
X133.08Y-31.24
X134.14Y-81.67
X134.26Y-53.57
X134.47Y-43.49
X135.03Y-51.02
X135.57Y-105.29
X135.836Y-53.543
X138.34Y-58.27
X139.77Y-121.8
X141.08Y-72.78
X142.2Y-65.8
X142.96Y-70.67
X143.053Y-72.593
X143.24Y-86.26
X143.49Y-100.58
X143.612Y-113.132
X144.323Y-84.988
X144.43Y-79.52
X145.796Y-79.451
X145.857Y-34.557
X145.98Y-77.99
X146.83Y-83.76
X147.47Y-37.18
X147.54Y-35.39
X147.58Y-45.32
X147.71Y-108.01
X148.33Y-62.56
X148.48Y-86.899
X151.67Y-104.31
X152.64Y-53.59
X153.13Y-81.57
X153.13Y-119.59
X153.35Y-50.97
X153.54Y-43.4
X153.975Y-53.34
X153.98Y-98.81
X154.53Y-105.34
X155.092Y-94.932
X155.78Y-127.4
X155.95Y-103.31
X158.98Y-59.63
X160.071Y-58.801
X160.18Y-57.38
X160.47Y-38.93
X160.86Y-72.76
X160.89Y-78.2
X161.14Y-65.73
X162.138Y-72.222
X162.14Y-31.23
X162.154Y-79.146
X162.18Y-70.69
X162.23Y-87.695
X162.68Y-100.67
X163.119Y-90.932
X163.81Y-87.26
X164.647Y-34.817
X164.88Y-83.76
X165.354Y-113.284
X166.67Y-45.22
X166.821Y-35.541
X167.42Y-62.55
X168.18Y-108.7
X169.665Y-122.724
X170.87Y-89.76
X171.01Y-112.47
X171.92Y-53.62
X172.14Y-81.63
X172.48Y-50.94
X172.49Y-43.4
X173.711Y-53.721
X174.041Y-93.116
X174.42Y-102.89
X175.92Y-105.61
X177.78Y-112.4
X179.172Y-58.801
X179.47Y-38.96
X179.71Y-78.32
X180.0Y-72.87
X180.3Y-65.82
X180.61Y-45.76
X181.04Y-121.86
X181.204Y-72.187
X181.204Y-78.892
X181.49Y-70.58
X181.7Y-100.62
X182.04Y-108.13
X182.15Y-86.739
X183.569Y-88.33
X183.93Y-83.84
X184.85Y-36.73
X185.08Y-127.42
X186.38Y-49.16
X186.44Y-62.49
X188.71Y-119.61
X189.81Y-102.91
X190.58Y-50.35
X191.25Y-81.65
X191.53Y-43.36
X191.74Y-114.36
X192.74Y-58.98
X193.015Y-93.193
X194.056Y-52.527
X196.19Y-66.243
X197.053Y-58.623
X197.13Y-115.49
X198.23Y-119.24
X198.504Y-60.744
X198.97Y-72.82
X199.13Y-78.23
X199.2Y-52.33
X199.46Y-31.23
X199.83Y-64.67
X200.177Y-72.136
X200.381Y-78.715
X200.508Y-87.503
X200.66Y-60.473
X200.74Y-108.08
X200.81Y-100.68
X201.28Y-45.73
X201.77Y-62.05
X202.58Y-70.6
X202.93Y-66.72
X203.09Y-83.82
X203.347Y-50.317
X204.36Y-53.48
X205.2Y-47.41
X205.46Y-62.46
X206.096Y-89.789
X206.84Y-56.37
X207.05Y-52.48
X207.22Y-43.49
X207.875Y-54.664
X208.24Y-31.22
X209.05Y-105.82
X210.32Y-81.71
X211.08Y-97.4
X211.176Y-108.102
X211.26Y-111.5
X211.76Y-127.43
X212.369Y-95.326
X213.5Y-108.07
X213.54Y-105.11
X214.53Y-57.816
X214.55Y-59.264
X214.681Y-64.338
X214.81Y-71.52
X214.94Y-66.34
X216.34Y-59.59
X216.586Y-55.321
X217.119Y-56.896
X217.15Y-111.48
X217.17Y-71.933
X217.9Y-78.24
X218.69Y-111.645
X219.17Y-113.85
X219.278Y-78.664
X219.278Y-87.274
X219.81Y-100.64
X219.91Y-72.59
X221.14Y-107.71
X222.0Y-83.85
X222.28Y-118.96
X223.55Y-121.34
X224.57Y-62.49
X227.21Y-31.22
X227.228Y-55.956
X228.53Y-38.32
X229.24Y-51.04
X229.3Y-81.6
X229.41Y-43.5
X229.44Y-45.91
X229.44Y-114.3
X229.895Y-89.662
X230.03Y-111.51
X230.14Y-37.93
X230.46Y-98.76
X230.674Y-51.164
X230.69Y-122.17
X230.784Y-44.653
X230.81Y-47.6
X231.597Y-95.326
X231.699Y-49.073
X232.486Y-51.74
X232.51Y-90.04
X232.58Y-64.76
X232.67Y-103.9
X233.223Y-50.597
X234.12Y-31.22
X234.41Y-59.26
X235.45Y-52.66
X235.534Y-56.972
X236.45Y-119.55
X236.81Y-49.24
X236.86Y-36.0
X236.969Y-52.819
X237.211Y-71.399
X237.92Y-127.45
X238.259Y-56.35
X238.36Y-43.39
X238.607Y-51.495
X238.608Y-50.495
X238.86Y-100.64
X239.55Y-109.99
X239.62Y-72.43
X240.26Y-54.55
X240.792Y-79.248
X240.792Y-87.452
X240.92Y-66.75
X241.74Y-116.45
X241.94Y-84.93
X242.21Y-79.83
X242.22Y-52.219
X242.686Y-55.626
X243.81Y-62.83
X244.47Y-55.89
X245.643Y-89.662
X245.88Y-50.31
X247.25Y-111.369
X247.442Y-38.695
X247.86Y-113.19
X248.43Y-81.73
X248.8Y-41.37
X248.96Y-108.05
X249.04Y-89.75
X249.88Y-52.1
X250.33Y-59.36
X250.393Y-94.132
X250.44Y-35.14
X251.2Y-37.08
X251.54Y-45.94
X252.08Y-102.43
X253.13Y-119.76
X253.84Y-111.56
X254.77Y-56.03
X255.952Y-65.127
X257.208Y-72.962
X257.58Y-43.76
X257.91Y-100.68
X259.512Y-72.568
X261.02Y-84.86
X261.97Y-79.86
X262.74Y-62.91
X263.18Y-118.8
X263.68Y-127.47
X265.74Y-57.32
X266.31Y-108.44
X266.5Y-38.96
X266.66Y-40.64
X267.03Y-120.94
X267.056Y-71.272
X267.37Y-81.55
X267.88Y-41.59
X268.04Y-51.2
X268.85Y-110.49
X269.12Y-105.58
X269.53Y-95.23
X269.68Y-102.84
X269.95Y-41.43
X270.002Y-51.537
X270.038Y-72.568
X271.24Y-50.83
X271.31Y-89.17
X272.22Y-35.68
X272.45Y-92.19
X272.517Y-50.368
X273.1Y-60.56
X273.14Y-107.87
X273.87Y-46.6
X274.37Y-71.4
X274.39Y-33.51
X274.472Y-60.071
X274.777Y-54.94
X274.777Y-56.312
X274.803Y-51.562
X275.38Y-121.89
X275.58Y-65.73
X275.59Y-36.39
X275.692Y-33.14
X276.4Y-42.92
X277.02Y-100.71
X277.12Y-31.22
X277.74Y-60.7
X277.87Y-56.11
X278.1Y-79.81
X278.155Y-50.47
X279.197Y-76.276
X279.578Y-112.598
X280.06Y-84.83
X280.75Y-109.1
X281.87Y-62.89
X282.397Y-49.733
X283.05Y-40.03
X285.44Y-39.15
X286.43Y-127.47
X286.58Y-81.6
X288.79Y-119.64
X289.06Y-35.35
X289.154Y-92.913
X289.36Y-45.66
X289.36Y-103.22
X290.17Y-37.16
X290.69Y-113.78
X292.89Y-60.66
X293.94Y-55.14
X294.03Y-72.161
X294.51Y-83.85
X295.045Y-64.625
X295.09Y-116.49
X295.13Y-54.01
X295.74Y-43.8
X295.783Y-51.435
X295.95Y-100.65
X296.9Y-122.24
X298.32Y-31.26
X298.679Y-76.378
X299.288Y-51.435
X300.78Y-62.55
X301.041Y-112.776
X301.21Y-39.37
X301.64Y-87.57
X302.84Y-112.9
X303.47Y-55.74
X303.87Y-109.13
X304.48Y-34.31
X305.44Y-77.76
X305.61Y-84.8
X306.47Y-59.145
X306.83Y-50.88
X307.543Y-108.61
X307.76Y-100.63
X307.899Y-93.523
X307.9Y-102.9
X307.94Y-48.86
X308.84Y-72.02
X309.118Y-110.185
X309.169Y-45.491
X309.728Y-59.03
X311.01Y-64.46
X311.11Y-44.38
X311.45Y-87.92
X312.54Y-62.44
X312.73Y-81.68
X312.95Y-51.93
X313.014Y-46.761
X313.131Y-68.264
X313.22Y-107.62
X313.284Y-33.503
X313.334Y-50.089
X313.93Y-65.83
X314.95Y-76.36
X314.95Y-119.68
X314.95Y-127.49
X315.63Y-41.8
X315.874Y-63.805
X316.25Y-73.14
X316.484Y-91.389
X317.101Y-71.069
X317.33Y-51.2
X317.34Y-46.04
X317.39Y-100.65
X317.49Y-89.49
X317.86Y-113.93
X318.13Y-79.21
X318.37Y-71.15
X318.4Y-108.05
X320.05Y-109.47
X320.37Y-63.34
X320.54Y-92.52
X320.65Y-85.23
X320.954Y-119.685
X321.15Y-77.37
X321.678Y-36.378
X321.99Y-90.29
X322.26Y-83.81
X322.885Y-110.185
X324.33Y-81.62
X324.51Y-115.926
X324.76Y-117.7
X324.97Y-106.12
X325.35Y-91.88
X325.374Y-110.287
X326.15Y-127.5
X326.21Y-62.41
X326.23Y-31.21
X326.554Y-68.786
X326.746Y-119.583
X326.83Y-112.87
X326.844Y-115.926
X327.53Y-65.75
X327.558Y-87.325
X327.67Y-58.29
X327.77Y-47.78
X327.914Y-53.797
X328.016Y-67.636
X328.02Y-76.64
X328.14Y-73.33
X328.43Y-64.87
X328.74Y-85.02
X328.87Y-100.02
X329.09Y-66.566
X329.3Y-53.54
X329.815Y-76.65
X329.831Y-103.911
X331.07Y-73.02
X331.07Y-107.56
X331.08Y-122.57
X331.09Y-58.54
X331.11Y-36.47
T2
X108.05Y-91.16
X108.05Y-98.78
X108.12Y-101.48
X108.12Y-109.1
X210.11Y-31.9
X210.11Y-34.44
X210.11Y-36.98
X210.11Y-39.52
X210.11Y-42.06
X210.11Y-44.6
X210.11Y-47.14
X210.11Y-49.68
X210.11Y-52.22
X212.65Y-52.43
X215.19Y-52.43
X217.73Y-52.43
X220.27Y-52.43
X222.81Y-52.43
X225.35Y-31.9
X225.35Y-34.44
X225.35Y-36.98
X225.35Y-39.52
X225.35Y-42.06
X225.35Y-44.6
X225.35Y-47.14
X225.35Y-49.68
X225.35Y-52.22
T0
M30
