G04 #@! TF.GenerationSoftware,KiCad,Pcbnew,(6.0.9)*
G04 #@! TF.CreationDate,2023-01-04T22:16:12+09:00*
G04 #@! TF.ProjectId,noraneko52r,6e6f7261-6e65-46b6-9f35-32722e6b6963,rev?*
G04 #@! TF.SameCoordinates,Original*
G04 #@! TF.FileFunction,Soldermask,Bot*
G04 #@! TF.FilePolarity,Negative*
%FSLAX46Y46*%
G04 Gerber Fmt 4.6, Leading zero omitted, Abs format (unit mm)*
G04 Created by KiCad (PCBNEW (6.0.9)) date 2023-01-04 22:16:12*
%MOMM*%
%LPD*%
G01*
G04 APERTURE LIST*
G04 Aperture macros list*
%AMRoundRect*
0 Rectangle with rounded corners*
0 $1 Rounding radius*
0 $2 $3 $4 $5 $6 $7 $8 $9 X,Y pos of 4 corners*
0 Add a 4 corners polygon primitive as box body*
4,1,4,$2,$3,$4,$5,$6,$7,$8,$9,$2,$3,0*
0 Add four circle primitives for the rounded corners*
1,1,$1+$1,$2,$3*
1,1,$1+$1,$4,$5*
1,1,$1+$1,$6,$7*
1,1,$1+$1,$8,$9*
0 Add four rect primitives between the rounded corners*
20,1,$1+$1,$2,$3,$4,$5,0*
20,1,$1+$1,$4,$5,$6,$7,0*
20,1,$1+$1,$6,$7,$8,$9,0*
20,1,$1+$1,$8,$9,$2,$3,0*%
G04 Aperture macros list end*
%ADD10C,4.000000*%
%ADD11C,1.700000*%
%ADD12C,3.000000*%
%ADD13R,2.600000X2.600000*%
%ADD14C,3.048000*%
%ADD15C,3.987800*%
%ADD16O,1.500000X3.300000*%
%ADD17O,0.300000X3.300000*%
%ADD18O,0.500000X3.300000*%
%ADD19O,3.500000X0.300000*%
%ADD20R,2.500000X1.200000*%
%ADD21R,1.700000X1.250000*%
%ADD22R,1.250000X1.700000*%
%ADD23R,1.500000X1.000000*%
%ADD24C,1.600000*%
%ADD25O,1.600000X1.600000*%
%ADD26RoundRect,0.150000X0.150000X-0.587500X0.150000X0.587500X-0.150000X0.587500X-0.150000X-0.587500X0*%
G04 APERTURE END LIST*
D10*
X279649500Y-99212500D03*
D11*
X274568418Y-99213239D03*
X284728418Y-99213239D03*
D12*
X282188418Y-94133239D03*
X275838418Y-96673239D03*
D13*
X285963418Y-94133239D03*
X272063418Y-96673239D03*
D12*
X301238418Y-94133239D03*
D10*
X298699500Y-99212500D03*
D11*
X303778418Y-99213239D03*
D12*
X294888418Y-96673239D03*
D11*
X293618418Y-99213239D03*
D13*
X305013418Y-94133239D03*
X291113418Y-96673239D03*
D12*
X185350918Y-58573239D03*
D10*
X189162000Y-61112500D03*
D11*
X194240918Y-61113239D03*
D12*
X191700918Y-56033239D03*
D11*
X184080918Y-61113239D03*
D13*
X195475918Y-56033239D03*
X181575918Y-58573239D03*
D11*
X141853418Y-80163239D03*
D12*
X132963418Y-77623239D03*
D10*
X136774500Y-80162500D03*
D11*
X131693418Y-80163239D03*
D12*
X139313418Y-75083239D03*
D13*
X143088418Y-75083239D03*
X129188418Y-77623239D03*
D10*
X270124500Y-118262500D03*
D12*
X272663418Y-113183239D03*
D11*
X275203418Y-118263239D03*
D12*
X266313418Y-115723239D03*
D11*
X265043418Y-118263239D03*
D13*
X276438418Y-113183239D03*
X262538418Y-115723239D03*
D11*
X145980918Y-61113239D03*
X156140918Y-61113239D03*
D12*
X147250918Y-58573239D03*
X153600918Y-56033239D03*
D10*
X151062000Y-61112500D03*
D13*
X157375918Y-56033239D03*
X143475918Y-58573239D03*
D11*
X118040918Y-118263239D03*
D10*
X112962000Y-118262500D03*
D12*
X109150918Y-115723239D03*
D11*
X107880918Y-118263239D03*
D12*
X115500918Y-113183239D03*
D13*
X119275918Y-113183239D03*
X105375918Y-115723239D03*
D12*
X313938918Y-115723239D03*
D11*
X322828918Y-118263239D03*
X312668918Y-118263239D03*
D12*
X320288918Y-113183239D03*
D10*
X317750000Y-118262500D03*
D13*
X324063918Y-113183239D03*
X310163918Y-115723239D03*
D11*
X315049418Y-99213239D03*
D10*
X320130500Y-99212500D03*
D12*
X316319418Y-96673239D03*
X322669418Y-94133239D03*
D11*
X325209418Y-99213239D03*
D13*
X326444418Y-94133239D03*
X312544418Y-96673239D03*
D10*
X155824500Y-80162500D03*
D12*
X158363418Y-75083239D03*
X152013418Y-77623239D03*
D11*
X160903418Y-80163239D03*
X150743418Y-80163239D03*
D13*
X162138418Y-75083239D03*
X148238418Y-77623239D03*
D12*
X194082418Y-113183239D03*
D11*
X186462418Y-118263239D03*
D14*
X179605500Y-125248239D03*
D10*
X191543500Y-118262500D03*
D11*
X196622418Y-118263239D03*
D15*
X203481500Y-110008239D03*
D12*
X187732418Y-115723239D03*
D14*
X203481500Y-125248239D03*
D15*
X179605500Y-110008239D03*
D13*
X197857418Y-113183239D03*
X183957418Y-115723239D03*
D11*
X246208918Y-41980739D03*
D12*
X243668918Y-36900739D03*
D11*
X236048918Y-41980739D03*
D10*
X241130000Y-41980000D03*
D12*
X237318918Y-39440739D03*
D13*
X247443918Y-36900739D03*
X233543918Y-39440739D03*
D10*
X265362000Y-61112500D03*
D11*
X270440918Y-61113239D03*
D12*
X261550918Y-58573239D03*
X267900918Y-56033239D03*
D11*
X260280918Y-61113239D03*
D13*
X271675918Y-56033239D03*
X257775918Y-58573239D03*
D10*
X146299500Y-99212500D03*
D12*
X142488418Y-96673239D03*
X148838418Y-94133239D03*
D11*
X141218418Y-99213239D03*
X151378418Y-99213239D03*
D13*
X152613418Y-94133239D03*
X138713418Y-96673239D03*
D10*
X279230000Y-41980000D03*
D11*
X274148918Y-41980739D03*
X284308918Y-41980739D03*
D12*
X275418918Y-39440739D03*
X281768918Y-36900739D03*
D13*
X285543918Y-36900739D03*
X271643918Y-39440739D03*
D11*
X298380918Y-61113239D03*
D12*
X299650918Y-58573239D03*
D10*
X303462000Y-61112500D03*
D11*
X308540918Y-61113239D03*
D12*
X306000918Y-56033239D03*
D13*
X309775918Y-56033239D03*
X295875918Y-58573239D03*
D12*
X237738418Y-96673239D03*
D11*
X246628418Y-99213239D03*
D10*
X241549500Y-99212500D03*
D11*
X236468418Y-99213239D03*
D12*
X244088418Y-94133239D03*
D13*
X247863418Y-94133239D03*
X233963418Y-96673239D03*
D10*
X322512000Y-61112500D03*
D11*
X327590918Y-61113239D03*
D12*
X318700918Y-58573239D03*
X325050918Y-56033239D03*
D11*
X317430918Y-61113239D03*
D13*
X328825918Y-56033239D03*
X314925918Y-58573239D03*
D12*
X158363418Y-113183239D03*
D10*
X155824500Y-118262500D03*
D11*
X150743418Y-118263239D03*
X160903418Y-118263239D03*
D12*
X152013418Y-115723239D03*
D13*
X162138418Y-113183239D03*
X148238418Y-115723239D03*
D11*
X241230918Y-61113239D03*
X251390918Y-61113239D03*
D12*
X248850918Y-56033239D03*
X242500918Y-58573239D03*
D10*
X246312000Y-61112500D03*
D13*
X252625918Y-56033239D03*
X238725918Y-58573239D03*
D11*
X217418418Y-99213239D03*
D12*
X225038418Y-94133239D03*
D11*
X227578418Y-99213239D03*
D10*
X222499500Y-99212500D03*
D12*
X218688418Y-96673239D03*
D13*
X228813418Y-94133239D03*
X214913418Y-96673239D03*
D12*
X133358918Y-39470739D03*
D11*
X132088918Y-42010739D03*
D10*
X137170000Y-42010000D03*
D11*
X142248918Y-42010739D03*
D12*
X139708918Y-36930739D03*
D13*
X143483918Y-36930739D03*
X129583918Y-39470739D03*
D12*
X204400918Y-58573239D03*
D10*
X208212000Y-61112500D03*
D11*
X213290918Y-61113239D03*
X203130918Y-61113239D03*
D12*
X210750918Y-56033239D03*
D13*
X214525918Y-56033239D03*
X200625918Y-58573239D03*
D10*
X120106000Y-99212500D03*
D11*
X115024918Y-99213239D03*
X125184918Y-99213239D03*
D12*
X116294918Y-96673239D03*
X122644918Y-94133239D03*
D13*
X126419918Y-94133239D03*
X112519918Y-96673239D03*
D11*
X320447418Y-80163239D03*
D12*
X317907418Y-75083239D03*
D11*
X310287418Y-80163239D03*
D10*
X315368500Y-80162500D03*
D12*
X311557418Y-77623239D03*
D13*
X321682418Y-75083239D03*
X307782418Y-77623239D03*
D12*
X134550918Y-56033239D03*
D11*
X126930918Y-61113239D03*
D12*
X128200918Y-58573239D03*
D11*
X137090918Y-61113239D03*
D10*
X132012000Y-61112500D03*
D13*
X138325918Y-56033239D03*
X124425918Y-58573239D03*
D11*
X118040918Y-61113239D03*
X107880918Y-61113239D03*
D12*
X109150918Y-58573239D03*
D10*
X112962000Y-61112500D03*
D12*
X115500918Y-56033239D03*
D13*
X119275918Y-56033239D03*
X105375918Y-58573239D03*
D12*
X161538418Y-96673239D03*
D11*
X170428418Y-99213239D03*
D12*
X167888418Y-94133239D03*
D10*
X165349500Y-99212500D03*
D11*
X160268418Y-99213239D03*
D13*
X171663418Y-94133239D03*
X157763418Y-96673239D03*
D10*
X156220000Y-42010000D03*
D11*
X151138918Y-42010739D03*
D12*
X152408918Y-39470739D03*
D11*
X161298918Y-42010739D03*
D12*
X158758918Y-36930739D03*
D13*
X162533918Y-36930739D03*
X148633918Y-39470739D03*
D10*
X112920000Y-41982500D03*
D11*
X117998918Y-41983239D03*
X107838918Y-41983239D03*
D12*
X109108918Y-39443239D03*
X115458918Y-36903239D03*
D13*
X119233918Y-36903239D03*
X105333918Y-39443239D03*
D10*
X270124500Y-80162500D03*
D11*
X275203418Y-80163239D03*
X265043418Y-80163239D03*
D12*
X272663418Y-75083239D03*
X266313418Y-77623239D03*
D13*
X276438418Y-75083239D03*
X262538418Y-77623239D03*
D11*
X189238918Y-42010739D03*
D12*
X190508918Y-39470739D03*
D11*
X199398918Y-42010739D03*
D12*
X196858918Y-36930739D03*
D10*
X194320000Y-42010000D03*
D13*
X200633918Y-36930739D03*
X186733918Y-39470739D03*
D11*
X317418918Y-42040739D03*
X327578918Y-42040739D03*
D12*
X318688918Y-39500739D03*
D10*
X322500000Y-42040000D03*
D12*
X325038918Y-36960739D03*
D13*
X328813918Y-36960739D03*
X314913918Y-39500739D03*
D12*
X223450918Y-58573239D03*
X229800918Y-56033239D03*
D11*
X232340918Y-61113239D03*
D10*
X227262000Y-61112500D03*
D11*
X222180918Y-61113239D03*
D13*
X233575918Y-56033239D03*
X219675918Y-58573239D03*
D11*
X110261918Y-80163239D03*
D12*
X117881918Y-75083239D03*
X111531918Y-77623239D03*
D11*
X120421918Y-80163239D03*
D10*
X115343000Y-80162500D03*
D13*
X121656918Y-75083239D03*
X107756918Y-77623239D03*
D11*
X265678418Y-99213239D03*
D12*
X263138418Y-94133239D03*
X256788418Y-96673239D03*
D10*
X260599500Y-99212500D03*
D11*
X255518418Y-99213239D03*
D13*
X266913418Y-94133239D03*
X253013418Y-96673239D03*
D11*
X265258918Y-41980739D03*
D10*
X260180000Y-41980000D03*
D12*
X256368918Y-39440739D03*
X262718918Y-36900739D03*
D11*
X255098918Y-41980739D03*
D13*
X266493918Y-36900739D03*
X252593918Y-39440739D03*
D12*
X300818918Y-36900739D03*
D11*
X303358918Y-41980739D03*
X293198918Y-41980739D03*
D12*
X294468918Y-39440739D03*
D10*
X298280000Y-41980000D03*
D13*
X304593918Y-36900739D03*
X290693918Y-39440739D03*
D12*
X280600918Y-58573239D03*
D11*
X279330918Y-61113239D03*
D12*
X286950918Y-56033239D03*
D10*
X284412000Y-61112500D03*
D11*
X289490918Y-61113239D03*
D13*
X290725918Y-56033239D03*
X276825918Y-58573239D03*
D12*
X234563418Y-75083239D03*
X228213418Y-77623239D03*
D11*
X226943418Y-80163239D03*
D10*
X232024500Y-80162500D03*
D11*
X237103418Y-80163239D03*
D13*
X238338418Y-75083239D03*
X224438418Y-77623239D03*
D11*
X256153418Y-80163239D03*
D12*
X247263418Y-77623239D03*
D11*
X245993418Y-80163239D03*
D12*
X253613418Y-75083239D03*
D10*
X251074500Y-80162500D03*
D13*
X257388418Y-75083239D03*
X243488418Y-77623239D03*
D12*
X130581918Y-115723239D03*
X136931918Y-113183239D03*
D11*
X139471918Y-118263239D03*
D10*
X134393000Y-118262500D03*
D11*
X129311918Y-118263239D03*
D13*
X140706918Y-113183239D03*
X126806918Y-115723239D03*
D10*
X212974500Y-80162500D03*
D11*
X218053418Y-80163239D03*
D12*
X215513418Y-75083239D03*
X209163418Y-77623239D03*
D11*
X207893418Y-80163239D03*
D13*
X219288418Y-75083239D03*
X205388418Y-77623239D03*
D11*
X180348918Y-42010739D03*
D10*
X175270000Y-42010000D03*
D12*
X177808918Y-36930739D03*
X171458918Y-39470739D03*
D11*
X170188918Y-42010739D03*
D13*
X181583918Y-36930739D03*
X167683918Y-39470739D03*
D12*
X205988418Y-94133239D03*
D11*
X208528418Y-99213239D03*
D10*
X203449500Y-99212500D03*
D11*
X198368418Y-99213239D03*
D12*
X199638418Y-96673239D03*
D13*
X209763418Y-94133239D03*
X195863418Y-96673239D03*
D12*
X294094418Y-113183239D03*
X287744418Y-115723239D03*
D10*
X291555500Y-118262500D03*
D11*
X286474418Y-118263239D03*
X296634418Y-118263239D03*
D13*
X297869418Y-113183239D03*
X283969418Y-115723239D03*
D10*
X193924500Y-80162500D03*
D12*
X190113418Y-77623239D03*
X196463418Y-75083239D03*
D11*
X199003418Y-80163239D03*
X188843418Y-80163239D03*
D13*
X200238418Y-75083239D03*
X186338418Y-77623239D03*
D12*
X186938418Y-94133239D03*
D11*
X189478418Y-99213239D03*
X179318418Y-99213239D03*
D12*
X180588418Y-96673239D03*
D10*
X184399500Y-99212500D03*
D13*
X190713418Y-94133239D03*
X176813418Y-96673239D03*
D11*
X244321518Y-118263239D03*
D12*
X241781518Y-113183239D03*
D14*
X251180600Y-125247500D03*
D10*
X239242600Y-118262500D03*
D12*
X235431518Y-115723239D03*
D14*
X227304600Y-125247500D03*
D15*
X227304600Y-110007500D03*
D11*
X234161518Y-118263239D03*
D15*
X251180600Y-110007500D03*
D13*
X245556518Y-113183239D03*
X231656518Y-115723239D03*
D11*
X169793418Y-80163239D03*
D12*
X177413418Y-75083239D03*
D11*
X179953418Y-80163239D03*
D10*
X174874500Y-80162500D03*
D12*
X171063418Y-77623239D03*
D13*
X181188418Y-75083239D03*
X167288418Y-77623239D03*
D12*
X291713418Y-75083239D03*
D11*
X294253418Y-80163239D03*
D10*
X289174500Y-80162500D03*
D11*
X284093418Y-80163239D03*
D12*
X285363418Y-77623239D03*
D13*
X295488418Y-75083239D03*
X281588418Y-77623239D03*
D11*
X175190918Y-61113239D03*
D12*
X172650918Y-56033239D03*
D10*
X170112000Y-61112500D03*
D11*
X165030918Y-61113239D03*
D12*
X166300918Y-58573239D03*
D13*
X176425918Y-56033239D03*
X162525918Y-58573239D03*
D16*
X155510000Y-46867500D03*
D17*
X157810000Y-46867500D03*
X154610000Y-46867500D03*
D16*
X156460000Y-46867500D03*
D18*
X154885000Y-46867500D03*
D16*
X156885000Y-46867500D03*
D18*
X157535000Y-46867500D03*
D19*
X156210000Y-45367500D03*
X156210000Y-48367500D03*
D20*
X159320000Y-47737500D03*
X159320000Y-46025000D03*
X153110000Y-46025000D03*
X153110000Y-47737500D03*
D16*
X137014500Y-85020000D03*
X136064500Y-85020000D03*
D18*
X138089500Y-85020000D03*
D19*
X136764500Y-86520000D03*
D18*
X135439500Y-85020000D03*
D17*
X138364500Y-85020000D03*
D16*
X137439500Y-85020000D03*
D17*
X135164500Y-85020000D03*
D19*
X136764500Y-83520000D03*
D20*
X139874500Y-85890000D03*
X139874500Y-84177500D03*
X133664500Y-84177500D03*
X133664500Y-85890000D03*
D19*
X239232600Y-124620000D03*
D16*
X239907600Y-123120000D03*
D19*
X239232600Y-121620000D03*
D18*
X237907600Y-123120000D03*
D16*
X238532600Y-123120000D03*
D17*
X240832600Y-123120000D03*
D16*
X239482600Y-123120000D03*
D17*
X237632600Y-123120000D03*
D18*
X240557600Y-123120000D03*
D20*
X242342600Y-123990000D03*
X242342600Y-122277500D03*
X236132600Y-122277500D03*
X236132600Y-123990000D03*
D16*
X166014500Y-104070000D03*
X164639500Y-104070000D03*
D17*
X166939500Y-104070000D03*
D18*
X166664500Y-104070000D03*
D16*
X165589500Y-104070000D03*
D19*
X165339500Y-102570000D03*
D18*
X164014500Y-104070000D03*
D17*
X163739500Y-104070000D03*
D19*
X165339500Y-105570000D03*
D20*
X168449500Y-104940000D03*
X168449500Y-103227500D03*
X162239500Y-103227500D03*
X162239500Y-104940000D03*
D21*
X271028000Y-43157500D03*
X267428000Y-43157500D03*
D19*
X112952000Y-64470000D03*
X112952000Y-67470000D03*
D16*
X113627000Y-65970000D03*
D18*
X111627000Y-65970000D03*
D17*
X114552000Y-65970000D03*
D16*
X112252000Y-65970000D03*
X113202000Y-65970000D03*
D17*
X111352000Y-65970000D03*
D18*
X114277000Y-65970000D03*
D20*
X116062000Y-66840000D03*
X116062000Y-65127500D03*
X109852000Y-65127500D03*
X109852000Y-66840000D03*
D16*
X317040000Y-123120000D03*
D17*
X319340000Y-123120000D03*
D16*
X317990000Y-123120000D03*
D18*
X316415000Y-123120000D03*
D16*
X318415000Y-123120000D03*
D17*
X316140000Y-123120000D03*
D19*
X317740000Y-121620000D03*
X317740000Y-124620000D03*
D18*
X319065000Y-123120000D03*
D20*
X320850000Y-123990000D03*
X320850000Y-122277500D03*
X314640000Y-122277500D03*
X314640000Y-123990000D03*
D21*
X123830000Y-119395000D03*
X120230000Y-119395000D03*
X276240000Y-62290000D03*
X272640000Y-62290000D03*
D16*
X120771000Y-104070000D03*
D18*
X118771000Y-104070000D03*
D17*
X121696000Y-104070000D03*
D16*
X119396000Y-104070000D03*
D19*
X120096000Y-102570000D03*
D16*
X120346000Y-104070000D03*
D17*
X118496000Y-104070000D03*
D19*
X120096000Y-105570000D03*
D18*
X121421000Y-104070000D03*
D20*
X123206000Y-104940000D03*
X123206000Y-103227500D03*
X116996000Y-103227500D03*
X116996000Y-104940000D03*
D18*
X113985000Y-85000000D03*
D17*
X113710000Y-85000000D03*
D19*
X115310000Y-83500000D03*
X115310000Y-86500000D03*
D16*
X114610000Y-85000000D03*
D17*
X116910000Y-85000000D03*
D16*
X115560000Y-85000000D03*
D18*
X116635000Y-85000000D03*
D16*
X115985000Y-85000000D03*
D20*
X118420000Y-85870000D03*
X118420000Y-84157500D03*
X112210000Y-84157500D03*
X112210000Y-85870000D03*
D16*
X146964500Y-104070000D03*
D18*
X144964500Y-104070000D03*
D19*
X146289500Y-102570000D03*
D17*
X147889500Y-104070000D03*
D16*
X146539500Y-104070000D03*
D18*
X147614500Y-104070000D03*
D16*
X145589500Y-104070000D03*
D19*
X146289500Y-105570000D03*
D17*
X144689500Y-104070000D03*
D20*
X149399500Y-104940000D03*
X149399500Y-103227500D03*
X143189500Y-103227500D03*
X143189500Y-104940000D03*
D22*
X329090000Y-82260000D03*
X329090000Y-78660000D03*
D17*
X268514500Y-85020000D03*
D16*
X270364500Y-85020000D03*
X270789500Y-85020000D03*
D18*
X268789500Y-85020000D03*
D17*
X271714500Y-85020000D03*
D18*
X271439500Y-85020000D03*
D19*
X270114500Y-86520000D03*
D16*
X269414500Y-85020000D03*
D19*
X270114500Y-83520000D03*
D20*
X273224500Y-85890000D03*
X273224500Y-84177500D03*
X267014500Y-84177500D03*
X267014500Y-85890000D03*
D16*
X113585000Y-46840000D03*
D19*
X112910000Y-48340000D03*
D17*
X111310000Y-46840000D03*
D19*
X112910000Y-45340000D03*
D16*
X112210000Y-46840000D03*
X113160000Y-46840000D03*
D18*
X111585000Y-46840000D03*
D17*
X114510000Y-46840000D03*
D18*
X114235000Y-46840000D03*
D20*
X116020000Y-47710000D03*
X116020000Y-45997500D03*
X109810000Y-45997500D03*
X109810000Y-47710000D03*
D23*
X120350000Y-110400000D03*
X120350000Y-107200000D03*
X125250000Y-107200000D03*
X125250000Y-110400000D03*
D16*
X297570000Y-46837500D03*
D17*
X299870000Y-46837500D03*
D19*
X298270000Y-48337500D03*
D16*
X298520000Y-46837500D03*
D18*
X299595000Y-46837500D03*
D17*
X296670000Y-46837500D03*
D16*
X298945000Y-46837500D03*
D18*
X296945000Y-46837500D03*
D19*
X298270000Y-45337500D03*
D20*
X301380000Y-47707500D03*
X301380000Y-45995000D03*
X295170000Y-45995000D03*
X295170000Y-47707500D03*
D21*
X309158000Y-43157500D03*
X305558000Y-43157500D03*
D17*
X262189500Y-104070000D03*
D18*
X259264500Y-104070000D03*
D16*
X260839500Y-104070000D03*
D17*
X258989500Y-104070000D03*
D19*
X260589500Y-105570000D03*
D16*
X259889500Y-104070000D03*
X261264500Y-104070000D03*
D19*
X260589500Y-102570000D03*
D18*
X261914500Y-104070000D03*
D20*
X263699500Y-104940000D03*
X263699500Y-103227500D03*
X257489500Y-103227500D03*
X257489500Y-104940000D03*
D21*
X295290000Y-62290000D03*
X291690000Y-62290000D03*
D16*
X194560000Y-46867500D03*
X194985000Y-46867500D03*
D17*
X195910000Y-46867500D03*
D19*
X194310000Y-48367500D03*
D18*
X192985000Y-46867500D03*
D19*
X194310000Y-45367500D03*
D17*
X192710000Y-46867500D03*
D18*
X195635000Y-46867500D03*
D16*
X193610000Y-46867500D03*
D20*
X197420000Y-47737500D03*
X197420000Y-46025000D03*
X191210000Y-46025000D03*
X191210000Y-47737500D03*
D16*
X227927000Y-65970000D03*
D19*
X227252000Y-67470000D03*
D18*
X228577000Y-65970000D03*
D16*
X227502000Y-65970000D03*
D17*
X225652000Y-65970000D03*
X228852000Y-65970000D03*
D16*
X226552000Y-65970000D03*
D19*
X227252000Y-64470000D03*
D18*
X225927000Y-65970000D03*
D20*
X230362000Y-66840000D03*
X230362000Y-65127500D03*
X224152000Y-65127500D03*
X224152000Y-66840000D03*
D21*
X257200000Y-62290000D03*
X253600000Y-62290000D03*
D18*
X135835000Y-46867500D03*
D19*
X137160000Y-45367500D03*
D16*
X137410000Y-46867500D03*
D19*
X137160000Y-48367500D03*
D16*
X136460000Y-46867500D03*
D17*
X135560000Y-46867500D03*
D16*
X137835000Y-46867500D03*
D18*
X138485000Y-46867500D03*
D17*
X138760000Y-46867500D03*
D20*
X140270000Y-47737500D03*
X140270000Y-46025000D03*
X134060000Y-46025000D03*
X134060000Y-47737500D03*
D17*
X130402000Y-65970000D03*
D19*
X132002000Y-67470000D03*
D18*
X130677000Y-65970000D03*
D16*
X131302000Y-65970000D03*
X132252000Y-65970000D03*
D17*
X133602000Y-65970000D03*
D16*
X132677000Y-65970000D03*
D18*
X133327000Y-65970000D03*
D19*
X132002000Y-64470000D03*
D20*
X135112000Y-66840000D03*
X135112000Y-65127500D03*
X128902000Y-65127500D03*
X128902000Y-66840000D03*
D16*
X221775000Y-104090000D03*
D19*
X222475000Y-105590000D03*
X222475000Y-102590000D03*
D18*
X223800000Y-104090000D03*
X221150000Y-104090000D03*
D17*
X224075000Y-104090000D03*
X220875000Y-104090000D03*
D16*
X223150000Y-104090000D03*
X222725000Y-104090000D03*
D20*
X225585000Y-104960000D03*
X225585000Y-103247500D03*
X219375000Y-103247500D03*
X219375000Y-104960000D03*
D18*
X239845000Y-46800000D03*
D17*
X239570000Y-46800000D03*
D16*
X241845000Y-46800000D03*
X240470000Y-46800000D03*
X241420000Y-46800000D03*
D17*
X242770000Y-46800000D03*
D19*
X241170000Y-48300000D03*
D18*
X242495000Y-46800000D03*
D19*
X241170000Y-45300000D03*
D20*
X244280000Y-47670000D03*
X244280000Y-45957500D03*
X238070000Y-45957500D03*
X238070000Y-47670000D03*
D21*
X205198000Y-43187500D03*
X201598000Y-43187500D03*
X223850000Y-81465000D03*
X220250000Y-81465000D03*
D24*
X108050000Y-98780000D03*
D25*
X108050000Y-91160000D03*
D18*
X292870500Y-123120000D03*
D16*
X292220500Y-123120000D03*
X291795500Y-123120000D03*
X290845500Y-123120000D03*
D19*
X291545500Y-124620000D03*
D17*
X289945500Y-123120000D03*
D18*
X290220500Y-123120000D03*
D17*
X293145500Y-123120000D03*
D19*
X291545500Y-121620000D03*
D20*
X294655500Y-123990000D03*
X294655500Y-122277500D03*
X288445500Y-122277500D03*
X288445500Y-123990000D03*
D16*
X269414500Y-123120000D03*
D19*
X270114500Y-121620000D03*
D17*
X268514500Y-123120000D03*
D16*
X270789500Y-123120000D03*
D19*
X270114500Y-124620000D03*
D18*
X268789500Y-123120000D03*
D17*
X271714500Y-123120000D03*
D16*
X270364500Y-123120000D03*
D18*
X271439500Y-123120000D03*
D20*
X273224500Y-123990000D03*
X273224500Y-122277500D03*
X267014500Y-122277500D03*
X267014500Y-123990000D03*
D18*
X252389500Y-85020000D03*
D19*
X251064500Y-86520000D03*
D16*
X251314500Y-85020000D03*
D19*
X251064500Y-83520000D03*
D16*
X251739500Y-85020000D03*
D18*
X249739500Y-85020000D03*
D17*
X249464500Y-85020000D03*
D16*
X250364500Y-85020000D03*
D17*
X252664500Y-85020000D03*
D20*
X254174500Y-85890000D03*
X254174500Y-84177500D03*
X247964500Y-84177500D03*
X247964500Y-85890000D03*
D21*
X200040000Y-62290000D03*
X196440000Y-62290000D03*
D19*
X265352000Y-67470000D03*
X265352000Y-64470000D03*
D18*
X266677000Y-65970000D03*
D16*
X266027000Y-65970000D03*
D17*
X263752000Y-65970000D03*
X266952000Y-65970000D03*
D16*
X264652000Y-65970000D03*
D18*
X264027000Y-65970000D03*
D16*
X265602000Y-65970000D03*
D20*
X268462000Y-66840000D03*
X268462000Y-65127500D03*
X262252000Y-65127500D03*
X262252000Y-66840000D03*
D18*
X323815000Y-46897500D03*
D19*
X322490000Y-48397500D03*
D16*
X322740000Y-46897500D03*
D18*
X321165000Y-46897500D03*
D16*
X321790000Y-46897500D03*
X323165000Y-46897500D03*
D19*
X322490000Y-45397500D03*
D17*
X324090000Y-46897500D03*
X320890000Y-46897500D03*
D20*
X325600000Y-47767500D03*
X325600000Y-46055000D03*
X319390000Y-46055000D03*
X319390000Y-47767500D03*
D18*
X318795500Y-104070000D03*
D19*
X320120500Y-102570000D03*
D16*
X319420500Y-104070000D03*
D17*
X321720500Y-104070000D03*
D16*
X320370500Y-104070000D03*
D18*
X321445500Y-104070000D03*
D19*
X320120500Y-105570000D03*
D17*
X318520500Y-104070000D03*
D16*
X320795500Y-104070000D03*
D20*
X323230500Y-104940000D03*
X323230500Y-103227500D03*
X317020500Y-103227500D03*
X317020500Y-104940000D03*
D21*
X304810000Y-119395000D03*
X301210000Y-119395000D03*
D23*
X124975000Y-88000000D03*
X124975000Y-91200000D03*
X120075000Y-91200000D03*
X120075000Y-88000000D03*
D21*
X157190000Y-100475000D03*
X153590000Y-100475000D03*
D16*
X175935000Y-46867500D03*
D19*
X175260000Y-45367500D03*
X175260000Y-48367500D03*
D18*
X173935000Y-46867500D03*
D17*
X173660000Y-46867500D03*
D16*
X175510000Y-46867500D03*
D18*
X176585000Y-46867500D03*
D17*
X176860000Y-46867500D03*
D16*
X174560000Y-46867500D03*
D20*
X178370000Y-47737500D03*
X178370000Y-46025000D03*
X172160000Y-46025000D03*
X172160000Y-47737500D03*
D16*
X231314500Y-85020000D03*
D17*
X230414500Y-85020000D03*
X233614500Y-85020000D03*
D19*
X232014500Y-83520000D03*
D18*
X233339500Y-85020000D03*
X230689500Y-85020000D03*
D16*
X232689500Y-85020000D03*
D19*
X232014500Y-86520000D03*
D16*
X232264500Y-85020000D03*
D20*
X235124500Y-85890000D03*
X235124500Y-84177500D03*
X228914500Y-84177500D03*
X228914500Y-85890000D03*
D18*
X204764500Y-104070000D03*
D16*
X204114500Y-104070000D03*
D17*
X205039500Y-104070000D03*
X201839500Y-104070000D03*
D16*
X203689500Y-104070000D03*
X202739500Y-104070000D03*
D19*
X203439500Y-105570000D03*
X203439500Y-102570000D03*
D18*
X202114500Y-104070000D03*
D20*
X206549500Y-104940000D03*
X206549500Y-103227500D03*
X200339500Y-103227500D03*
X200339500Y-104940000D03*
D23*
X308950000Y-91400000D03*
X308950000Y-88200000D03*
X313850000Y-88200000D03*
X313850000Y-91400000D03*
D21*
X180980000Y-62290000D03*
X177380000Y-62290000D03*
D16*
X193214500Y-85020000D03*
X194589500Y-85020000D03*
D18*
X195239500Y-85020000D03*
D16*
X194164500Y-85020000D03*
D19*
X193914500Y-86520000D03*
D17*
X192314500Y-85020000D03*
X195514500Y-85020000D03*
D19*
X193914500Y-83520000D03*
D18*
X192589500Y-85020000D03*
D20*
X197024500Y-85890000D03*
X197024500Y-84177500D03*
X190814500Y-84177500D03*
X190814500Y-85890000D03*
D21*
X166690000Y-119395000D03*
X163090000Y-119395000D03*
D17*
X301852000Y-65970000D03*
D18*
X302127000Y-65970000D03*
D16*
X303702000Y-65970000D03*
D18*
X304777000Y-65970000D03*
D16*
X302752000Y-65970000D03*
D17*
X305052000Y-65970000D03*
D19*
X303452000Y-64470000D03*
D16*
X304127000Y-65970000D03*
D19*
X303452000Y-67470000D03*
D20*
X306562000Y-66840000D03*
X306562000Y-65127500D03*
X300352000Y-65127500D03*
X300352000Y-66840000D03*
D19*
X241539500Y-105570000D03*
D17*
X239939500Y-104070000D03*
X243139500Y-104070000D03*
D18*
X240214500Y-104070000D03*
X242864500Y-104070000D03*
D16*
X241789500Y-104070000D03*
D19*
X241539500Y-102570000D03*
D16*
X240839500Y-104070000D03*
X242214500Y-104070000D03*
D20*
X244649500Y-104940000D03*
X244649500Y-103227500D03*
X238439500Y-103227500D03*
X238439500Y-104940000D03*
D21*
X311960000Y-40005000D03*
X308360000Y-40005000D03*
D17*
X211364500Y-85020000D03*
X214564500Y-85020000D03*
D16*
X213214500Y-85020000D03*
D18*
X211639500Y-85020000D03*
D16*
X212264500Y-85020000D03*
X213639500Y-85020000D03*
D19*
X212964500Y-83520000D03*
X212964500Y-86520000D03*
D18*
X214289500Y-85020000D03*
D20*
X216074500Y-85890000D03*
X216074500Y-84177500D03*
X209864500Y-84177500D03*
X209864500Y-85890000D03*
D22*
X325935000Y-82340000D03*
X325935000Y-78740000D03*
D16*
X288464500Y-85020000D03*
D18*
X290489500Y-85020000D03*
D17*
X290764500Y-85020000D03*
D16*
X289414500Y-85020000D03*
D18*
X287839500Y-85020000D03*
D19*
X289164500Y-86520000D03*
X289164500Y-83520000D03*
D17*
X287564500Y-85020000D03*
D16*
X289839500Y-85020000D03*
D20*
X292274500Y-85890000D03*
X292274500Y-84177500D03*
X286064500Y-84177500D03*
X286064500Y-85890000D03*
D21*
X242900000Y-81465000D03*
X239300000Y-81465000D03*
X309560000Y-100475000D03*
X305960000Y-100475000D03*
D23*
X171050000Y-110200000D03*
X171050000Y-107000000D03*
X175950000Y-107000000D03*
X175950000Y-110200000D03*
D21*
X300050000Y-81465000D03*
X296450000Y-81465000D03*
X280990000Y-81465000D03*
X277390000Y-81465000D03*
D23*
X252291667Y-49170000D03*
X252291667Y-52370000D03*
X247391667Y-52370000D03*
X247391667Y-49170000D03*
D17*
X320902000Y-65970000D03*
D18*
X323827000Y-65970000D03*
D16*
X323177000Y-65970000D03*
D19*
X322502000Y-67470000D03*
D16*
X322752000Y-65970000D03*
D19*
X322502000Y-64470000D03*
D18*
X321177000Y-65970000D03*
D17*
X324102000Y-65970000D03*
D16*
X321802000Y-65970000D03*
D20*
X325612000Y-66840000D03*
X325612000Y-65127500D03*
X319402000Y-65127500D03*
X319402000Y-66840000D03*
D23*
X124950000Y-68800000D03*
X124950000Y-72000000D03*
X120050000Y-72000000D03*
X120050000Y-68800000D03*
D21*
X258500000Y-119395000D03*
X254900000Y-119395000D03*
D18*
X300014500Y-104070000D03*
D16*
X298939500Y-104070000D03*
X299364500Y-104070000D03*
D17*
X300289500Y-104070000D03*
D19*
X298689500Y-102570000D03*
D16*
X297989500Y-104070000D03*
D19*
X298689500Y-105570000D03*
D18*
X297364500Y-104070000D03*
D17*
X297089500Y-104070000D03*
D20*
X301799500Y-104940000D03*
X301799500Y-103227500D03*
X295589500Y-103227500D03*
X295589500Y-104940000D03*
D21*
X145380000Y-119395000D03*
X141780000Y-119395000D03*
D17*
X209802000Y-65970000D03*
D19*
X208202000Y-64470000D03*
D17*
X206602000Y-65970000D03*
D19*
X208202000Y-67470000D03*
D16*
X208877000Y-65970000D03*
X208452000Y-65970000D03*
D18*
X206877000Y-65970000D03*
X209527000Y-65970000D03*
D16*
X207502000Y-65970000D03*
D20*
X211312000Y-66840000D03*
X211312000Y-65127500D03*
X205102000Y-65127500D03*
X205102000Y-66840000D03*
D21*
X219090000Y-62290000D03*
X215490000Y-62290000D03*
D19*
X284402000Y-67470000D03*
D16*
X283702000Y-65970000D03*
D18*
X285727000Y-65970000D03*
D19*
X284402000Y-64470000D03*
D16*
X285077000Y-65970000D03*
D17*
X286002000Y-65970000D03*
D16*
X284652000Y-65970000D03*
D18*
X283077000Y-65970000D03*
D17*
X282802000Y-65970000D03*
D20*
X287512000Y-66840000D03*
X287512000Y-65127500D03*
X281302000Y-65127500D03*
X281302000Y-66840000D03*
D16*
X190833500Y-123120000D03*
D17*
X193133500Y-123120000D03*
D19*
X191533500Y-121620000D03*
D18*
X192858500Y-123120000D03*
D19*
X191533500Y-124620000D03*
D18*
X190208500Y-123120000D03*
D16*
X191783500Y-123120000D03*
X192208500Y-123120000D03*
D17*
X189933500Y-123120000D03*
D20*
X194643500Y-123990000D03*
X194643500Y-122277500D03*
X188433500Y-122277500D03*
X188433500Y-123990000D03*
D23*
X315420000Y-68800000D03*
X315420000Y-72000000D03*
X310520000Y-72000000D03*
X310520000Y-68800000D03*
D17*
X171702000Y-65970000D03*
D18*
X171427000Y-65970000D03*
D16*
X170352000Y-65970000D03*
X170777000Y-65970000D03*
D18*
X168777000Y-65970000D03*
D17*
X168502000Y-65970000D03*
D19*
X170102000Y-67470000D03*
X170102000Y-64470000D03*
D16*
X169402000Y-65970000D03*
D20*
X173212000Y-66840000D03*
X173212000Y-65127500D03*
X167002000Y-65127500D03*
X167002000Y-66840000D03*
D16*
X315608500Y-85020000D03*
D18*
X314033500Y-85020000D03*
D19*
X315358500Y-83520000D03*
D16*
X314658500Y-85020000D03*
X316033500Y-85020000D03*
D19*
X315358500Y-86520000D03*
D17*
X316958500Y-85020000D03*
D18*
X316683500Y-85020000D03*
D17*
X313758500Y-85020000D03*
D20*
X318468500Y-85890000D03*
X318468500Y-84177500D03*
X312258500Y-84177500D03*
X312258500Y-85890000D03*
D17*
X154214500Y-85020000D03*
D18*
X154489500Y-85020000D03*
D16*
X155114500Y-85020000D03*
D19*
X155814500Y-83520000D03*
X155814500Y-86520000D03*
D16*
X156064500Y-85020000D03*
X156489500Y-85020000D03*
D18*
X157139500Y-85020000D03*
D17*
X157414500Y-85020000D03*
D20*
X158924500Y-85890000D03*
X158924500Y-84177500D03*
X152714500Y-84177500D03*
X152714500Y-85890000D03*
D21*
X280990000Y-119395000D03*
X277390000Y-119395000D03*
X290530000Y-100475000D03*
X286930000Y-100475000D03*
D23*
X188798334Y-49170000D03*
X188798334Y-52370000D03*
X183898334Y-52370000D03*
X183898334Y-49170000D03*
D16*
X156489500Y-123120000D03*
D19*
X155814500Y-121620000D03*
D18*
X154489500Y-123120000D03*
D17*
X154214500Y-123120000D03*
D18*
X157139500Y-123120000D03*
D16*
X156064500Y-123120000D03*
D17*
X157414500Y-123120000D03*
D19*
X155814500Y-124620000D03*
D16*
X155114500Y-123120000D03*
D20*
X158924500Y-123990000D03*
X158924500Y-122277500D03*
X152714500Y-122277500D03*
X152714500Y-123990000D03*
D21*
X148028000Y-43187500D03*
X144428000Y-43187500D03*
X290098000Y-43157500D03*
X286498000Y-43157500D03*
D16*
X151727000Y-65970000D03*
D19*
X151052000Y-64470000D03*
D16*
X151302000Y-65970000D03*
D17*
X152652000Y-65970000D03*
X149452000Y-65970000D03*
D16*
X150352000Y-65970000D03*
D18*
X149727000Y-65970000D03*
X152377000Y-65970000D03*
D19*
X151052000Y-67470000D03*
D20*
X154162000Y-66840000D03*
X154162000Y-65127500D03*
X147952000Y-65127500D03*
X147952000Y-66840000D03*
D23*
X266355000Y-110200000D03*
X266355000Y-107000000D03*
X271255000Y-107000000D03*
X271255000Y-110200000D03*
D22*
X328220000Y-118150000D03*
X328220000Y-114550000D03*
D21*
X195260000Y-100475000D03*
X191660000Y-100475000D03*
D18*
X261495000Y-46837500D03*
D16*
X260420000Y-46837500D03*
D19*
X260170000Y-48337500D03*
D17*
X258570000Y-46837500D03*
D18*
X258845000Y-46837500D03*
D19*
X260170000Y-45337500D03*
D17*
X261770000Y-46837500D03*
D16*
X260845000Y-46837500D03*
X259470000Y-46837500D03*
D20*
X263280000Y-47707500D03*
X263280000Y-45995000D03*
X257070000Y-45995000D03*
X257070000Y-47707500D03*
D17*
X247902000Y-65970000D03*
D18*
X247627000Y-65970000D03*
X244977000Y-65970000D03*
D19*
X246302000Y-64470000D03*
D16*
X246977000Y-65970000D03*
X246552000Y-65970000D03*
D17*
X244702000Y-65970000D03*
D16*
X245602000Y-65970000D03*
D19*
X246302000Y-67470000D03*
D20*
X249412000Y-66840000D03*
X249412000Y-65127500D03*
X243202000Y-65127500D03*
X243202000Y-66840000D03*
D26*
X109160000Y-88690000D03*
X107260000Y-88690000D03*
X108210000Y-86815000D03*
D21*
X167068000Y-43187500D03*
X163468000Y-43187500D03*
X233370000Y-100475000D03*
X229770000Y-100475000D03*
X147650000Y-81465000D03*
X144050000Y-81465000D03*
X128610000Y-81465000D03*
X125010000Y-81465000D03*
D19*
X279220000Y-48337500D03*
D16*
X279895000Y-46837500D03*
D18*
X277895000Y-46837500D03*
D19*
X279220000Y-45337500D03*
D16*
X278520000Y-46837500D03*
D17*
X280820000Y-46837500D03*
X277620000Y-46837500D03*
D16*
X279470000Y-46837500D03*
D18*
X280545000Y-46837500D03*
D20*
X282330000Y-47707500D03*
X282330000Y-45995000D03*
X276120000Y-45995000D03*
X276120000Y-47707500D03*
D21*
X261940000Y-81465000D03*
X258340000Y-81465000D03*
X212480000Y-119395000D03*
X208880000Y-119395000D03*
X138130000Y-100475000D03*
X134530000Y-100475000D03*
X314330000Y-62290000D03*
X310730000Y-62290000D03*
D18*
X135708000Y-123120000D03*
D19*
X134383000Y-124620000D03*
D16*
X134633000Y-123120000D03*
D17*
X132783000Y-123120000D03*
D16*
X133683000Y-123120000D03*
D17*
X135983000Y-123120000D03*
D16*
X135058000Y-123120000D03*
D19*
X134383000Y-121620000D03*
D18*
X133058000Y-123120000D03*
D20*
X137493000Y-123990000D03*
X137493000Y-122277500D03*
X131283000Y-122277500D03*
X131283000Y-123990000D03*
D16*
X112252000Y-123120000D03*
D19*
X112952000Y-121620000D03*
D17*
X111352000Y-123120000D03*
D18*
X111627000Y-123120000D03*
D19*
X112952000Y-124620000D03*
D17*
X114552000Y-123120000D03*
D16*
X113627000Y-123120000D03*
D18*
X114277000Y-123120000D03*
D16*
X113202000Y-123120000D03*
D20*
X116062000Y-123990000D03*
X116062000Y-122277500D03*
X109852000Y-122277500D03*
X109852000Y-123990000D03*
D19*
X279639500Y-102570000D03*
D18*
X280964500Y-104070000D03*
D16*
X280314500Y-104070000D03*
X279889500Y-104070000D03*
X278939500Y-104070000D03*
D17*
X278039500Y-104070000D03*
D18*
X278314500Y-104070000D03*
D17*
X281239500Y-104070000D03*
D19*
X279639500Y-105570000D03*
D20*
X282749500Y-104940000D03*
X282749500Y-103227500D03*
X276539500Y-103227500D03*
X276539500Y-104940000D03*
D21*
X166710000Y-81465000D03*
X163110000Y-81465000D03*
X176230000Y-100475000D03*
X172630000Y-100475000D03*
X252420000Y-100475000D03*
X248820000Y-100475000D03*
D23*
X218675000Y-110200000D03*
X218675000Y-107000000D03*
X223575000Y-107000000D03*
X223575000Y-110200000D03*
D21*
X123850000Y-62290000D03*
X120250000Y-62290000D03*
X204790000Y-81465000D03*
X201190000Y-81465000D03*
X185750000Y-81465000D03*
X182150000Y-81465000D03*
D22*
X328212000Y-105400000D03*
X328212000Y-101800000D03*
D16*
X185064500Y-104070000D03*
X184639500Y-104070000D03*
D18*
X183064500Y-104070000D03*
X185714500Y-104070000D03*
D19*
X184389500Y-105570000D03*
D16*
X183689500Y-104070000D03*
D17*
X182789500Y-104070000D03*
X185989500Y-104070000D03*
D19*
X184389500Y-102570000D03*
D20*
X187499500Y-104940000D03*
X187499500Y-103227500D03*
X181289500Y-103227500D03*
X181289500Y-104940000D03*
D23*
X310833000Y-110200000D03*
X310833000Y-107000000D03*
X315733000Y-107000000D03*
X315733000Y-110200000D03*
D24*
X210110000Y-31900000D03*
X210110000Y-34440000D03*
X210110000Y-36980000D03*
X210110000Y-39520000D03*
X210110000Y-42060000D03*
X210110000Y-44600000D03*
X210110000Y-47140000D03*
X210110000Y-49680000D03*
X210110000Y-52220000D03*
X212650000Y-52430000D03*
X215190000Y-52430000D03*
X217730000Y-52430000D03*
X220270000Y-52430000D03*
X222810000Y-52430000D03*
X225350000Y-52220000D03*
X225350000Y-49680000D03*
X225350000Y-47140000D03*
X225350000Y-44600000D03*
X225350000Y-42060000D03*
X225350000Y-39520000D03*
X225350000Y-36980000D03*
X225350000Y-34440000D03*
X225350000Y-31900000D03*
D23*
X125305000Y-49150000D03*
X125305000Y-52350000D03*
X120405000Y-52350000D03*
X120405000Y-49150000D03*
D24*
X108120000Y-109100000D03*
D25*
X108120000Y-101480000D03*
D16*
X189827000Y-65970000D03*
D17*
X190752000Y-65970000D03*
D19*
X189152000Y-67470000D03*
D18*
X187827000Y-65970000D03*
D16*
X188452000Y-65970000D03*
D17*
X187552000Y-65970000D03*
D18*
X190477000Y-65970000D03*
D16*
X189402000Y-65970000D03*
D19*
X189152000Y-64470000D03*
D20*
X192262000Y-66840000D03*
X192262000Y-65127500D03*
X186052000Y-65127500D03*
X186052000Y-66840000D03*
D21*
X271480000Y-100475000D03*
X267880000Y-100475000D03*
X142870000Y-62290000D03*
X139270000Y-62290000D03*
X238140000Y-62290000D03*
X234540000Y-62290000D03*
X214320000Y-100475000D03*
X210720000Y-100475000D03*
D18*
X173539500Y-85020000D03*
D16*
X175114500Y-85020000D03*
D17*
X176464500Y-85020000D03*
D16*
X175539500Y-85020000D03*
D17*
X173264500Y-85020000D03*
D18*
X176189500Y-85020000D03*
D19*
X174864500Y-83520000D03*
D16*
X174164500Y-85020000D03*
D19*
X174864500Y-86520000D03*
D20*
X177974500Y-85890000D03*
X177974500Y-84177500D03*
X171764500Y-84177500D03*
X171764500Y-85890000D03*
D21*
X161910000Y-62290000D03*
X158310000Y-62290000D03*
X186138000Y-43187500D03*
X182538000Y-43187500D03*
X123808000Y-43160000D03*
X120208000Y-43160000D03*
D23*
X315785000Y-49170000D03*
X315785000Y-52370000D03*
X310885000Y-52370000D03*
X310885000Y-49170000D03*
D21*
X251988000Y-43157500D03*
X248388000Y-43157500D03*
M02*
