M48
; DRILL file {KiCad (6.0.9)} date Wed Jan  4 22:16:28 2023
; FORMAT={-:-/ absolute / metric / decimal}
; #@! TF.CreationDate,2023-01-04T22:16:28+09:00
; #@! TF.GenerationSoftware,Kicad,Pcbnew,(6.0.9)
; #@! TF.FileFunction,NonPlated,1,2,NPTH
FMAT,2
METRIC
; #@! TA.AperFunction,NonPlated,NPTH,ComponentDrill
T1C0.300
; #@! TA.AperFunction,NonPlated,NPTH,ComponentDrill
T2C0.500
; #@! TA.AperFunction,NonPlated,NPTH,ComponentDrill
T3C1.500
; #@! TA.AperFunction,NonPlated,NPTH,ComponentDrill
T4C1.700
; #@! TA.AperFunction,NonPlated,NPTH,ComponentDrill
T5C3.000
; #@! TA.AperFunction,NonPlated,NPTH,ComponentDrill
T6C3.048
; #@! TA.AperFunction,NonPlated,NPTH,ComponentDrill
T7C3.988
; #@! TA.AperFunction,NonPlated,NPTH,ComponentDrill
T8C4.000
%
G90
G05
T4
X107.839Y-41.983
X107.881Y-61.113
X107.881Y-118.263
X110.262Y-80.163
X115.025Y-99.213
X117.999Y-41.983
X118.041Y-61.113
X118.041Y-118.263
X120.422Y-80.163
X125.185Y-99.213
X126.931Y-61.113
X129.312Y-118.263
X131.693Y-80.163
X132.089Y-42.011
X137.091Y-61.113
X139.472Y-118.263
X141.218Y-99.213
X141.853Y-80.163
X142.249Y-42.011
X145.981Y-61.113
X150.743Y-80.163
X150.743Y-118.263
X151.139Y-42.011
X151.378Y-99.213
X156.141Y-61.113
X160.268Y-99.213
X160.903Y-80.163
X160.903Y-118.263
X161.299Y-42.011
X165.031Y-61.113
X169.793Y-80.163
X170.189Y-42.011
X170.428Y-99.213
X175.191Y-61.113
X179.318Y-99.213
X179.953Y-80.163
X180.349Y-42.011
X184.081Y-61.113
X186.462Y-118.263
X188.843Y-80.163
X189.239Y-42.011
X189.478Y-99.213
X194.241Y-61.113
X196.622Y-118.263
X198.368Y-99.213
X199.003Y-80.163
X199.399Y-42.011
X203.131Y-61.113
X207.893Y-80.163
X208.528Y-99.213
X213.291Y-61.113
X217.418Y-99.213
X218.053Y-80.163
X222.181Y-61.113
X226.943Y-80.163
X227.578Y-99.213
X232.341Y-61.113
X234.162Y-118.263
X236.049Y-41.981
X236.468Y-99.213
X237.103Y-80.163
X241.231Y-61.113
X244.322Y-118.263
X245.993Y-80.163
X246.209Y-41.981
X246.628Y-99.213
X251.391Y-61.113
X255.099Y-41.981
X255.518Y-99.213
X256.153Y-80.163
X260.281Y-61.113
X265.043Y-80.163
X265.043Y-118.263
X265.259Y-41.981
X265.678Y-99.213
X270.441Y-61.113
X274.149Y-41.981
X274.568Y-99.213
X275.203Y-80.163
X275.203Y-118.263
X279.331Y-61.113
X284.093Y-80.163
X284.309Y-41.981
X284.728Y-99.213
X286.474Y-118.263
X289.491Y-61.113
X293.199Y-41.981
X293.618Y-99.213
X294.253Y-80.163
X296.634Y-118.263
X298.381Y-61.113
X303.359Y-41.981
X303.778Y-99.213
X308.541Y-61.113
X310.287Y-80.163
X312.669Y-118.263
X315.049Y-99.213
X317.419Y-42.041
X317.431Y-61.113
X320.447Y-80.163
X322.829Y-118.263
X325.209Y-99.213
X327.579Y-42.041
X327.591Y-61.113
T5
X109.109Y-39.443
X109.151Y-58.573
X109.151Y-115.723
X111.532Y-77.623
X115.459Y-36.903
X115.501Y-56.033
X115.501Y-113.183
X116.295Y-96.673
X117.882Y-75.083
X122.645Y-94.133
X128.201Y-58.573
X130.582Y-115.723
X132.963Y-77.623
X133.359Y-39.471
X134.551Y-56.033
X136.932Y-113.183
X139.313Y-75.083
X139.709Y-36.931
X142.488Y-96.673
X147.251Y-58.573
X148.838Y-94.133
X152.013Y-77.623
X152.013Y-115.723
X152.409Y-39.471
X153.601Y-56.033
X158.363Y-75.083
X158.363Y-113.183
X158.759Y-36.931
X161.538Y-96.673
X166.301Y-58.573
X167.888Y-94.133
X171.063Y-77.623
X171.459Y-39.471
X172.651Y-56.033
X177.413Y-75.083
X177.809Y-36.931
X180.588Y-96.673
X185.351Y-58.573
X186.938Y-94.133
X187.732Y-115.723
X190.113Y-77.623
X190.509Y-39.471
X191.701Y-56.033
X194.082Y-113.183
X196.463Y-75.083
X196.859Y-36.931
X199.638Y-96.673
X204.401Y-58.573
X205.988Y-94.133
X209.163Y-77.623
X210.751Y-56.033
X215.513Y-75.083
X218.688Y-96.673
X223.451Y-58.573
X225.038Y-94.133
X228.213Y-77.623
X229.801Y-56.033
X234.563Y-75.083
X235.432Y-115.723
X237.319Y-39.441
X237.738Y-96.673
X241.782Y-113.183
X242.501Y-58.573
X243.669Y-36.901
X244.088Y-94.133
X247.263Y-77.623
X248.851Y-56.033
X253.613Y-75.083
X256.369Y-39.441
X256.788Y-96.673
X261.551Y-58.573
X262.719Y-36.901
X263.138Y-94.133
X266.313Y-77.623
X266.313Y-115.723
X267.901Y-56.033
X272.663Y-75.083
X272.663Y-113.183
X275.419Y-39.441
X275.838Y-96.673
X280.601Y-58.573
X281.769Y-36.901
X282.188Y-94.133
X285.363Y-77.623
X286.951Y-56.033
X287.744Y-115.723
X291.713Y-75.083
X294.094Y-113.183
X294.469Y-39.441
X294.888Y-96.673
X299.651Y-58.573
X300.819Y-36.901
X301.238Y-94.133
X306.001Y-56.033
X311.557Y-77.623
X313.939Y-115.723
X316.319Y-96.673
X317.907Y-75.083
X318.689Y-39.501
X318.701Y-58.573
X320.289Y-113.183
X322.669Y-94.133
X325.039Y-36.961
X325.051Y-56.033
T6
X179.605Y-125.248
X203.481Y-125.248
X227.305Y-125.247
X251.181Y-125.247
T7
X179.605Y-110.008
X203.481Y-110.008
X227.305Y-110.007
X251.181Y-110.007
T8
X112.92Y-41.982
X112.962Y-61.112
X112.962Y-118.262
X115.343Y-80.162
X120.106Y-99.212
X132.012Y-61.112
X134.393Y-118.262
X136.774Y-80.162
X137.17Y-42.01
X146.299Y-99.212
X151.062Y-61.112
X155.825Y-80.162
X155.825Y-118.262
X156.22Y-42.01
X165.35Y-99.212
X170.112Y-61.112
X174.874Y-80.162
X175.27Y-42.01
X184.399Y-99.212
X189.162Y-61.112
X191.543Y-118.262
X193.924Y-80.162
X194.32Y-42.01
X203.45Y-99.212
X208.212Y-61.112
X212.974Y-80.162
X222.499Y-99.212
X227.262Y-61.112
X232.024Y-80.162
X239.243Y-118.262
X241.13Y-41.98
X241.549Y-99.212
X246.312Y-61.112
X251.075Y-80.162
X260.18Y-41.98
X260.599Y-99.212
X265.362Y-61.112
X270.125Y-80.162
X270.125Y-118.262
X279.23Y-41.98
X279.649Y-99.212
X284.412Y-61.112
X289.174Y-80.162
X291.555Y-118.262
X298.28Y-41.98
X298.7Y-99.212
X303.462Y-61.112
X315.368Y-80.162
X317.75Y-118.262
X320.13Y-99.212
X322.5Y-42.04
X322.512Y-61.112
T1
G00X111.31Y-45.34
M15
G01X111.31Y-48.34
M16
G05
G00X111.352Y-64.47
M15
G01X111.352Y-67.47
M16
G05
G00X111.352Y-121.62
M15
G01X111.352Y-124.62
M16
G05
G00X114.51Y-45.34
M15
G01X111.31Y-45.34
M16
G05
G00X114.51Y-48.34
M15
G01X111.31Y-48.34
M16
G05
G00X114.552Y-64.47
M15
G01X111.352Y-64.47
M16
G05
G00X114.552Y-67.47
M15
G01X111.352Y-67.47
M16
G05
G00X114.552Y-121.62
M15
G01X111.352Y-121.62
M16
G05
G00X114.552Y-124.62
M15
G01X111.352Y-124.62
M16
G05
G00X113.71Y-83.5
M15
G01X113.71Y-86.5
M16
G05
G00X114.51Y-45.34
M15
G01X114.51Y-48.34
M16
G05
G00X114.552Y-64.47
M15
G01X114.552Y-67.47
M16
G05
G00X114.552Y-121.62
M15
G01X114.552Y-124.62
M16
G05
G00X116.91Y-83.5
M15
G01X113.71Y-83.5
M16
G05
G00X116.91Y-86.5
M15
G01X113.71Y-86.5
M16
G05
G00X116.91Y-83.5
M15
G01X116.91Y-86.5
M16
G05
G00X118.496Y-102.57
M15
G01X118.496Y-105.57
M16
G05
G00X121.696Y-102.57
M15
G01X118.496Y-102.57
M16
G05
G00X121.696Y-105.57
M15
G01X118.496Y-105.57
M16
G05
G00X121.696Y-102.57
M15
G01X121.696Y-105.57
M16
G05
G00X130.402Y-64.47
M15
G01X130.402Y-67.47
M16
G05
G00X133.602Y-64.47
M15
G01X130.402Y-64.47
M16
G05
G00X133.602Y-67.47
M15
G01X130.402Y-67.47
M16
G05
G00X132.783Y-121.62
M15
G01X132.783Y-124.62
M16
G05
G00X133.602Y-64.47
M15
G01X133.602Y-67.47
M16
G05
G00X135.983Y-121.62
M15
G01X132.783Y-121.62
M16
G05
G00X135.983Y-124.62
M15
G01X132.783Y-124.62
M16
G05
G00X135.165Y-83.52
M15
G01X135.165Y-86.52
M16
G05
G00X135.56Y-45.367
M15
G01X135.56Y-48.367
M16
G05
G00X135.983Y-121.62
M15
G01X135.983Y-124.62
M16
G05
G00X138.364Y-83.52
M15
G01X135.165Y-83.52
M16
G05
G00X138.364Y-86.52
M15
G01X135.165Y-86.52
M16
G05
G00X138.76Y-45.367
M15
G01X135.56Y-45.367
M16
G05
G00X138.76Y-48.367
M15
G01X135.56Y-48.367
M16
G05
G00X138.364Y-83.52
M15
G01X138.364Y-86.52
M16
G05
G00X138.76Y-45.367
M15
G01X138.76Y-48.367
M16
G05
G00X144.689Y-102.57
M15
G01X144.689Y-105.57
M16
G05
G00X147.889Y-102.57
M15
G01X144.689Y-102.57
M16
G05
G00X147.889Y-105.57
M15
G01X144.689Y-105.57
M16
G05
G00X147.889Y-102.57
M15
G01X147.889Y-105.57
M16
G05
G00X149.452Y-64.47
M15
G01X149.452Y-67.47
M16
G05
G00X152.652Y-64.47
M15
G01X149.452Y-64.47
M16
G05
G00X152.652Y-67.47
M15
G01X149.452Y-67.47
M16
G05
G00X152.652Y-64.47
M15
G01X152.652Y-67.47
M16
G05
G00X154.214Y-83.52
M15
G01X154.214Y-86.52
M16
G05
G00X154.214Y-121.62
M15
G01X154.214Y-124.62
M16
G05
G00X154.61Y-45.367
M15
G01X154.61Y-48.367
M16
G05
G00X157.415Y-83.52
M15
G01X154.214Y-83.52
M16
G05
G00X157.415Y-86.52
M15
G01X154.214Y-86.52
M16
G05
G00X157.415Y-121.62
M15
G01X154.214Y-121.62
M16
G05
G00X157.415Y-124.62
M15
G01X154.214Y-124.62
M16
G05
G00X157.81Y-45.367
M15
G01X154.61Y-45.367
M16
G05
G00X157.81Y-48.367
M15
G01X154.61Y-48.367
M16
G05
G00X157.415Y-83.52
M15
G01X157.415Y-86.52
M16
G05
G00X157.415Y-121.62
M15
G01X157.415Y-124.62
M16
G05
G00X157.81Y-45.367
M15
G01X157.81Y-48.367
M16
G05
G00X163.739Y-102.57
M15
G01X163.739Y-105.57
M16
G05
G00X166.939Y-102.57
M15
G01X163.739Y-102.57
M16
G05
G00X166.939Y-105.57
M15
G01X163.739Y-105.57
M16
G05
G00X166.939Y-102.57
M15
G01X166.939Y-105.57
M16
G05
G00X168.502Y-64.47
M15
G01X168.502Y-67.47
M16
G05
G00X171.702Y-64.47
M15
G01X168.502Y-64.47
M16
G05
G00X171.702Y-67.47
M15
G01X168.502Y-67.47
M16
G05
G00X171.702Y-64.47
M15
G01X171.702Y-67.47
M16
G05
G00X173.264Y-83.52
M15
G01X173.264Y-86.52
M16
G05
G00X173.66Y-45.367
M15
G01X173.66Y-48.367
M16
G05
G00X176.464Y-83.52
M15
G01X173.264Y-83.52
M16
G05
G00X176.464Y-86.52
M15
G01X173.264Y-86.52
M16
G05
G00X176.86Y-45.367
M15
G01X173.66Y-45.367
M16
G05
G00X176.86Y-48.367
M15
G01X173.66Y-48.367
M16
G05
G00X176.464Y-83.52
M15
G01X176.464Y-86.52
M16
G05
G00X176.86Y-45.367
M15
G01X176.86Y-48.367
M16
G05
G00X182.79Y-102.57
M15
G01X182.79Y-105.57
M16
G05
G00X185.989Y-102.57
M15
G01X182.79Y-102.57
M16
G05
G00X185.989Y-105.57
M15
G01X182.79Y-105.57
M16
G05
G00X185.989Y-102.57
M15
G01X185.989Y-105.57
M16
G05
G00X187.552Y-64.47
M15
G01X187.552Y-67.47
M16
G05
G00X190.752Y-64.47
M15
G01X187.552Y-64.47
M16
G05
G00X190.752Y-67.47
M15
G01X187.552Y-67.47
M16
G05
G00X189.933Y-121.62
M15
G01X189.933Y-124.62
M16
G05
G00X190.752Y-64.47
M15
G01X190.752Y-67.47
M16
G05
G00X193.133Y-121.62
M15
G01X189.933Y-121.62
M16
G05
G00X193.133Y-124.62
M15
G01X189.933Y-124.62
M16
G05
G00X192.314Y-83.52
M15
G01X192.314Y-86.52
M16
G05
G00X192.71Y-45.367
M15
G01X192.71Y-48.367
M16
G05
G00X193.133Y-121.62
M15
G01X193.133Y-124.62
M16
G05
G00X195.514Y-83.52
M15
G01X192.314Y-83.52
M16
G05
G00X195.514Y-86.52
M15
G01X192.314Y-86.52
M16
G05
G00X195.91Y-45.367
M15
G01X192.71Y-45.367
M16
G05
G00X195.91Y-48.367
M15
G01X192.71Y-48.367
M16
G05
G00X195.514Y-83.52
M15
G01X195.514Y-86.52
M16
G05
G00X195.91Y-45.367
M15
G01X195.91Y-48.367
M16
G05
G00X201.839Y-102.57
M15
G01X201.839Y-105.57
M16
G05
G00X205.04Y-102.57
M15
G01X201.839Y-102.57
M16
G05
G00X205.04Y-105.57
M15
G01X201.839Y-105.57
M16
G05
G00X205.04Y-102.57
M15
G01X205.04Y-105.57
M16
G05
G00X206.602Y-64.47
M15
G01X206.602Y-67.47
M16
G05
G00X209.802Y-64.47
M15
G01X206.602Y-64.47
M16
G05
G00X209.802Y-67.47
M15
G01X206.602Y-67.47
M16
G05
G00X209.802Y-64.47
M15
G01X209.802Y-67.47
M16
G05
G00X211.364Y-83.52
M15
G01X211.364Y-86.52
M16
G05
G00X214.564Y-83.52
M15
G01X211.364Y-83.52
M16
G05
G00X214.564Y-86.52
M15
G01X211.364Y-86.52
M16
G05
G00X214.564Y-83.52
M15
G01X214.564Y-86.52
M16
G05
G00X220.875Y-102.59
M15
G01X220.875Y-105.59
M16
G05
G00X224.075Y-102.59
M15
G01X220.875Y-102.59
M16
G05
G00X224.075Y-105.59
M15
G01X220.875Y-105.59
M16
G05
G00X224.075Y-102.59
M15
G01X224.075Y-105.59
M16
G05
G00X225.652Y-64.47
M15
G01X225.652Y-67.47
M16
G05
G00X228.852Y-64.47
M15
G01X225.652Y-64.47
M16
G05
G00X228.852Y-67.47
M15
G01X225.652Y-67.47
M16
G05
G00X228.852Y-64.47
M15
G01X228.852Y-67.47
M16
G05
G00X230.414Y-83.52
M15
G01X230.414Y-86.52
M16
G05
G00X233.614Y-83.52
M15
G01X230.414Y-83.52
M16
G05
G00X233.614Y-86.52
M15
G01X230.414Y-86.52
M16
G05
G00X233.614Y-83.52
M15
G01X233.614Y-86.52
M16
G05
G00X237.633Y-121.62
M15
G01X237.633Y-124.62
M16
G05
G00X240.833Y-121.62
M15
G01X237.633Y-121.62
M16
G05
G00X240.833Y-124.62
M15
G01X237.633Y-124.62
M16
G05
G00X239.57Y-45.3
M15
G01X239.57Y-48.3
M16
G05
G00X239.939Y-102.57
M15
G01X239.939Y-105.57
M16
G05
G00X240.833Y-121.62
M15
G01X240.833Y-124.62
M16
G05
G00X242.77Y-45.3
M15
G01X239.57Y-45.3
M16
G05
G00X242.77Y-48.3
M15
G01X239.57Y-48.3
M16
G05
G00X243.139Y-102.57
M15
G01X239.939Y-102.57
M16
G05
G00X243.139Y-105.57
M15
G01X239.939Y-105.57
M16
G05
G00X242.77Y-45.3
M15
G01X242.77Y-48.3
M16
G05
G00X243.139Y-102.57
M15
G01X243.139Y-105.57
M16
G05
G00X244.702Y-64.47
M15
G01X244.702Y-67.47
M16
G05
G00X247.902Y-64.47
M15
G01X244.702Y-64.47
M16
G05
G00X247.902Y-67.47
M15
G01X244.702Y-67.47
M16
G05
G00X247.902Y-64.47
M15
G01X247.902Y-67.47
M16
G05
G00X249.464Y-83.52
M15
G01X249.464Y-86.52
M16
G05
G00X252.664Y-83.52
M15
G01X249.464Y-83.52
M16
G05
G00X252.664Y-86.52
M15
G01X249.464Y-86.52
M16
G05
G00X252.664Y-83.52
M15
G01X252.664Y-86.52
M16
G05
G00X258.57Y-45.337
M15
G01X258.57Y-48.337
M16
G05
G00X258.989Y-102.57
M15
G01X258.989Y-105.57
M16
G05
G00X261.77Y-45.337
M15
G01X258.57Y-45.337
M16
G05
G00X261.77Y-48.337
M15
G01X258.57Y-48.337
M16
G05
G00X262.19Y-102.57
M15
G01X258.989Y-102.57
M16
G05
G00X262.19Y-105.57
M15
G01X258.989Y-105.57
M16
G05
G00X261.77Y-45.337
M15
G01X261.77Y-48.337
M16
G05
G00X262.19Y-102.57
M15
G01X262.19Y-105.57
M16
G05
G00X263.752Y-64.47
M15
G01X263.752Y-67.47
M16
G05
G00X266.952Y-64.47
M15
G01X263.752Y-64.47
M16
G05
G00X266.952Y-67.47
M15
G01X263.752Y-67.47
M16
G05
G00X266.952Y-64.47
M15
G01X266.952Y-67.47
M16
G05
G00X268.514Y-83.52
M15
G01X268.514Y-86.52
M16
G05
G00X268.514Y-121.62
M15
G01X268.514Y-124.62
M16
G05
G00X271.714Y-83.52
M15
G01X268.514Y-83.52
M16
G05
G00X271.714Y-86.52
M15
G01X268.514Y-86.52
M16
G05
G00X271.714Y-121.62
M15
G01X268.514Y-121.62
M16
G05
G00X271.714Y-124.62
M15
G01X268.514Y-124.62
M16
G05
G00X271.714Y-83.52
M15
G01X271.714Y-86.52
M16
G05
G00X271.714Y-121.62
M15
G01X271.714Y-124.62
M16
G05
G00X277.62Y-45.337
M15
G01X277.62Y-48.337
M16
G05
G00X278.039Y-102.57
M15
G01X278.039Y-105.57
M16
G05
G00X280.82Y-45.337
M15
G01X277.62Y-45.337
M16
G05
G00X280.82Y-48.337
M15
G01X277.62Y-48.337
M16
G05
G00X281.239Y-102.57
M15
G01X278.039Y-102.57
M16
G05
G00X281.239Y-105.57
M15
G01X278.039Y-105.57
M16
G05
G00X280.82Y-45.337
M15
G01X280.82Y-48.337
M16
G05
G00X281.239Y-102.57
M15
G01X281.239Y-105.57
M16
G05
G00X282.802Y-64.47
M15
G01X282.802Y-67.47
M16
G05
G00X286.002Y-64.47
M15
G01X282.802Y-64.47
M16
G05
G00X286.002Y-67.47
M15
G01X282.802Y-67.47
M16
G05
G00X286.002Y-64.47
M15
G01X286.002Y-67.47
M16
G05
G00X287.565Y-83.52
M15
G01X287.565Y-86.52
M16
G05
G00X290.764Y-83.52
M15
G01X287.565Y-83.52
M16
G05
G00X290.764Y-86.52
M15
G01X287.565Y-86.52
M16
G05
G00X289.945Y-121.62
M15
G01X289.945Y-124.62
M16
G05
G00X290.764Y-83.52
M15
G01X290.764Y-86.52
M16
G05
G00X293.145Y-121.62
M15
G01X289.945Y-121.62
M16
G05
G00X293.145Y-124.62
M15
G01X289.945Y-124.62
M16
G05
G00X293.145Y-121.62
M15
G01X293.145Y-124.62
M16
G05
G00X296.67Y-45.337
M15
G01X296.67Y-48.337
M16
G05
G00X297.089Y-102.57
M15
G01X297.089Y-105.57
M16
G05
G00X299.87Y-45.337
M15
G01X296.67Y-45.337
M16
G05
G00X299.87Y-48.337
M15
G01X296.67Y-48.337
M16
G05
G00X300.289Y-102.57
M15
G01X297.089Y-102.57
M16
G05
G00X300.289Y-105.57
M15
G01X297.089Y-105.57
M16
G05
G00X299.87Y-45.337
M15
G01X299.87Y-48.337
M16
G05
G00X300.289Y-102.57
M15
G01X300.289Y-105.57
M16
G05
G00X301.852Y-64.47
M15
G01X301.852Y-67.47
M16
G05
G00X305.052Y-64.47
M15
G01X301.852Y-64.47
M16
G05
G00X305.052Y-67.47
M15
G01X301.852Y-67.47
M16
G05
G00X305.052Y-64.47
M15
G01X305.052Y-67.47
M16
G05
G00X313.758Y-83.52
M15
G01X313.758Y-86.52
M16
G05
G00X316.958Y-83.52
M15
G01X313.758Y-83.52
M16
G05
G00X316.958Y-86.52
M15
G01X313.758Y-86.52
M16
G05
G00X316.14Y-121.62
M15
G01X316.14Y-124.62
M16
G05
G00X316.958Y-83.52
M15
G01X316.958Y-86.52
M16
G05
G00X319.34Y-121.62
M15
G01X316.14Y-121.62
M16
G05
G00X319.34Y-124.62
M15
G01X316.14Y-124.62
M16
G05
G00X318.52Y-102.57
M15
G01X318.52Y-105.57
M16
G05
G00X319.34Y-121.62
M15
G01X319.34Y-124.62
M16
G05
G00X321.72Y-102.57
M15
G01X318.52Y-102.57
M16
G05
G00X321.72Y-105.57
M15
G01X318.52Y-105.57
M16
G05
G00X320.89Y-45.398
M15
G01X320.89Y-48.398
M16
G05
G00X320.902Y-64.47
M15
G01X320.902Y-67.47
M16
G05
G00X321.72Y-102.57
M15
G01X321.72Y-105.57
M16
G05
G00X324.09Y-45.398
M15
G01X320.89Y-45.398
M16
G05
G00X324.09Y-48.398
M15
G01X320.89Y-48.398
M16
G05
G00X324.102Y-64.47
M15
G01X320.902Y-64.47
M16
G05
G00X324.102Y-67.47
M15
G01X320.902Y-67.47
M16
G05
G00X324.09Y-45.398
M15
G01X324.09Y-48.398
M16
G05
G00X324.102Y-64.47
M15
G01X324.102Y-67.47
M16
G05
T2
G00X111.585Y-45.44
M15
G01X111.585Y-48.24
M16
G05
G00X111.627Y-64.57
M15
G01X111.627Y-67.37
M16
G05
G00X111.627Y-121.72
M15
G01X111.627Y-124.52
M16
G05
G00X113.985Y-83.6
M15
G01X113.985Y-86.4
M16
G05
G00X114.235Y-45.44
M15
G01X114.235Y-48.24
M16
G05
G00X114.277Y-64.57
M15
G01X114.277Y-67.37
M16
G05
G00X114.277Y-121.72
M15
G01X114.277Y-124.52
M16
G05
G00X116.635Y-83.6
M15
G01X116.635Y-86.4
M16
G05
G00X118.771Y-102.67
M15
G01X118.771Y-105.47
M16
G05
G00X121.421Y-102.67
M15
G01X121.421Y-105.47
M16
G05
G00X130.677Y-64.57
M15
G01X130.677Y-67.37
M16
G05
G00X133.058Y-121.72
M15
G01X133.058Y-124.52
M16
G05
G00X133.327Y-64.57
M15
G01X133.327Y-67.37
M16
G05
G00X135.439Y-83.62
M15
G01X135.439Y-86.42
M16
G05
G00X135.708Y-121.72
M15
G01X135.708Y-124.52
M16
G05
G00X135.835Y-45.468
M15
G01X135.835Y-48.267
M16
G05
G00X138.089Y-83.62
M15
G01X138.089Y-86.42
M16
G05
G00X138.485Y-45.468
M15
G01X138.485Y-48.267
M16
G05
G00X144.964Y-102.67
M15
G01X144.964Y-105.47
M16
G05
G00X147.614Y-102.67
M15
G01X147.614Y-105.47
M16
G05
G00X149.727Y-64.57
M15
G01X149.727Y-67.37
M16
G05
G00X152.377Y-64.57
M15
G01X152.377Y-67.37
M16
G05
G00X154.489Y-83.62
M15
G01X154.489Y-86.42
M16
G05
G00X154.489Y-121.72
M15
G01X154.489Y-124.52
M16
G05
G00X154.885Y-45.468
M15
G01X154.885Y-48.267
M16
G05
G00X157.139Y-83.62
M15
G01X157.139Y-86.42
M16
G05
G00X157.139Y-121.72
M15
G01X157.139Y-124.52
M16
G05
G00X157.535Y-45.468
M15
G01X157.535Y-48.267
M16
G05
G00X164.014Y-102.67
M15
G01X164.014Y-105.47
M16
G05
G00X166.665Y-102.67
M15
G01X166.665Y-105.47
M16
G05
G00X168.777Y-64.57
M15
G01X168.777Y-67.37
M16
G05
G00X171.427Y-64.57
M15
G01X171.427Y-67.37
M16
G05
G00X173.54Y-83.62
M15
G01X173.54Y-86.42
M16
G05
G00X173.935Y-45.468
M15
G01X173.935Y-48.267
M16
G05
G00X176.189Y-83.62
M15
G01X176.189Y-86.42
M16
G05
G00X176.585Y-45.468
M15
G01X176.585Y-48.267
M16
G05
G00X183.064Y-102.67
M15
G01X183.064Y-105.47
M16
G05
G00X185.714Y-102.67
M15
G01X185.714Y-105.47
M16
G05
G00X187.827Y-64.57
M15
G01X187.827Y-67.37
M16
G05
G00X190.208Y-121.72
M15
G01X190.208Y-124.52
M16
G05
G00X190.477Y-64.57
M15
G01X190.477Y-67.37
M16
G05
G00X192.589Y-83.62
M15
G01X192.589Y-86.42
M16
G05
G00X192.858Y-121.72
M15
G01X192.858Y-124.52
M16
G05
G00X192.985Y-45.468
M15
G01X192.985Y-48.267
M16
G05
G00X195.239Y-83.62
M15
G01X195.239Y-86.42
M16
G05
G00X195.635Y-45.468
M15
G01X195.635Y-48.267
M16
G05
G00X202.114Y-102.67
M15
G01X202.114Y-105.47
M16
G05
G00X204.764Y-102.67
M15
G01X204.764Y-105.47
M16
G05
G00X206.877Y-64.57
M15
G01X206.877Y-67.37
M16
G05
G00X209.527Y-64.57
M15
G01X209.527Y-67.37
M16
G05
G00X211.639Y-83.62
M15
G01X211.639Y-86.42
M16
G05
G00X214.29Y-83.62
M15
G01X214.29Y-86.42
M16
G05
G00X221.15Y-102.69
M15
G01X221.15Y-105.49
M16
G05
G00X223.8Y-102.69
M15
G01X223.8Y-105.49
M16
G05
G00X225.927Y-64.57
M15
G01X225.927Y-67.37
M16
G05
G00X228.577Y-64.57
M15
G01X228.577Y-67.37
M16
G05
G00X230.689Y-83.62
M15
G01X230.689Y-86.42
M16
G05
G00X233.339Y-83.62
M15
G01X233.339Y-86.42
M16
G05
G00X237.908Y-121.72
M15
G01X237.908Y-124.52
M16
G05
G00X239.845Y-45.4
M15
G01X239.845Y-48.2
M16
G05
G00X240.214Y-102.67
M15
G01X240.214Y-105.47
M16
G05
G00X240.558Y-121.72
M15
G01X240.558Y-124.52
M16
G05
G00X242.495Y-45.4
M15
G01X242.495Y-48.2
M16
G05
G00X242.864Y-102.67
M15
G01X242.864Y-105.47
M16
G05
G00X244.977Y-64.57
M15
G01X244.977Y-67.37
M16
G05
G00X247.627Y-64.57
M15
G01X247.627Y-67.37
M16
G05
G00X249.739Y-83.62
M15
G01X249.739Y-86.42
M16
G05
G00X252.389Y-83.62
M15
G01X252.389Y-86.42
M16
G05
G00X258.845Y-45.438
M15
G01X258.845Y-48.237
M16
G05
G00X259.264Y-102.67
M15
G01X259.264Y-105.47
M16
G05
G00X261.495Y-45.438
M15
G01X261.495Y-48.237
M16
G05
G00X261.914Y-102.67
M15
G01X261.914Y-105.47
M16
G05
G00X264.027Y-64.57
M15
G01X264.027Y-67.37
M16
G05
G00X266.677Y-64.57
M15
G01X266.677Y-67.37
M16
G05
G00X268.789Y-83.62
M15
G01X268.789Y-86.42
M16
G05
G00X268.789Y-121.72
M15
G01X268.789Y-124.52
M16
G05
G00X271.44Y-83.62
M15
G01X271.44Y-86.42
M16
G05
G00X271.44Y-121.72
M15
G01X271.44Y-124.52
M16
G05
G00X277.895Y-45.438
M15
G01X277.895Y-48.237
M16
G05
G00X278.315Y-102.67
M15
G01X278.315Y-105.47
M16
G05
G00X280.545Y-45.438
M15
G01X280.545Y-48.237
M16
G05
G00X280.964Y-102.67
M15
G01X280.964Y-105.47
M16
G05
G00X283.077Y-64.57
M15
G01X283.077Y-67.37
M16
G05
G00X285.727Y-64.57
M15
G01X285.727Y-67.37
M16
G05
G00X287.839Y-83.62
M15
G01X287.839Y-86.42
M16
G05
G00X290.22Y-121.72
M15
G01X290.22Y-124.52
M16
G05
G00X290.489Y-83.62
M15
G01X290.489Y-86.42
M16
G05
G00X292.87Y-121.72
M15
G01X292.87Y-124.52
M16
G05
G00X296.945Y-45.438
M15
G01X296.945Y-48.237
M16
G05
G00X297.364Y-102.67
M15
G01X297.364Y-105.47
M16
G05
G00X299.595Y-45.438
M15
G01X299.595Y-48.237
M16
G05
G00X300.014Y-102.67
M15
G01X300.014Y-105.47
M16
G05
G00X302.127Y-64.57
M15
G01X302.127Y-67.37
M16
G05
G00X304.777Y-64.57
M15
G01X304.777Y-67.37
M16
G05
G00X314.034Y-83.62
M15
G01X314.034Y-86.42
M16
G05
G00X316.415Y-121.72
M15
G01X316.415Y-124.52
M16
G05
G00X316.683Y-83.62
M15
G01X316.683Y-86.42
M16
G05
G00X318.796Y-102.67
M15
G01X318.796Y-105.47
M16
G05
G00X319.065Y-121.72
M15
G01X319.065Y-124.52
M16
G05
G00X321.165Y-45.497
M15
G01X321.165Y-48.297
M16
G05
G00X321.177Y-64.57
M15
G01X321.177Y-67.37
M16
G05
G00X321.445Y-102.67
M15
G01X321.445Y-105.47
M16
G05
G00X323.815Y-45.497
M15
G01X323.815Y-48.297
M16
G05
G00X323.827Y-64.57
M15
G01X323.827Y-67.37
M16
G05
T3
G00X112.21Y-45.94
M15
G01X112.21Y-47.74
M16
G05
G00X112.252Y-65.07
M15
G01X112.252Y-66.87
M16
G05
G00X112.252Y-122.22
M15
G01X112.252Y-124.02
M16
G05
G00X113.16Y-45.94
M15
G01X113.16Y-47.74
M16
G05
G00X113.202Y-65.07
M15
G01X113.202Y-66.87
M16
G05
G00X113.202Y-122.22
M15
G01X113.202Y-124.02
M16
G05
G00X113.585Y-45.94
M15
G01X113.585Y-47.74
M16
G05
G00X113.627Y-65.07
M15
G01X113.627Y-66.87
M16
G05
G00X113.627Y-122.22
M15
G01X113.627Y-124.02
M16
G05
G00X114.61Y-84.1
M15
G01X114.61Y-85.9
M16
G05
G00X115.56Y-84.1
M15
G01X115.56Y-85.9
M16
G05
G00X115.985Y-84.1
M15
G01X115.985Y-85.9
M16
G05
G00X119.396Y-103.17
M15
G01X119.396Y-104.97
M16
G05
G00X120.346Y-103.17
M15
G01X120.346Y-104.97
M16
G05
G00X120.771Y-103.17
M15
G01X120.771Y-104.97
M16
G05
G00X131.302Y-65.07
M15
G01X131.302Y-66.87
M16
G05
G00X132.252Y-65.07
M15
G01X132.252Y-66.87
M16
G05
G00X132.677Y-65.07
M15
G01X132.677Y-66.87
M16
G05
G00X133.683Y-122.22
M15
G01X133.683Y-124.02
M16
G05
G00X134.633Y-122.22
M15
G01X134.633Y-124.02
M16
G05
G00X135.058Y-122.22
M15
G01X135.058Y-124.02
M16
G05
G00X136.064Y-84.12
M15
G01X136.064Y-85.92
M16
G05
G00X136.46Y-45.968
M15
G01X136.46Y-47.767
M16
G05
G00X137.014Y-84.12
M15
G01X137.014Y-85.92
M16
G05
G00X137.41Y-45.968
M15
G01X137.41Y-47.767
M16
G05
G00X137.439Y-84.12
M15
G01X137.439Y-85.92
M16
G05
G00X137.835Y-45.968
M15
G01X137.835Y-47.767
M16
G05
G00X145.589Y-103.17
M15
G01X145.589Y-104.97
M16
G05
G00X146.54Y-103.17
M15
G01X146.54Y-104.97
M16
G05
G00X146.964Y-103.17
M15
G01X146.964Y-104.97
M16
G05
G00X150.352Y-65.07
M15
G01X150.352Y-66.87
M16
G05
G00X151.302Y-65.07
M15
G01X151.302Y-66.87
M16
G05
G00X151.727Y-65.07
M15
G01X151.727Y-66.87
M16
G05
G00X155.114Y-84.12
M15
G01X155.114Y-85.92
M16
G05
G00X155.114Y-122.22
M15
G01X155.114Y-124.02
M16
G05
G00X155.51Y-45.968
M15
G01X155.51Y-47.767
M16
G05
G00X156.064Y-84.12
M15
G01X156.064Y-85.92
M16
G05
G00X156.064Y-122.22
M15
G01X156.064Y-124.02
M16
G05
G00X156.46Y-45.968
M15
G01X156.46Y-47.767
M16
G05
G00X156.489Y-84.12
M15
G01X156.489Y-85.92
M16
G05
G00X156.489Y-122.22
M15
G01X156.489Y-124.02
M16
G05
G00X156.885Y-45.968
M15
G01X156.885Y-47.767
M16
G05
G00X164.639Y-103.17
M15
G01X164.639Y-104.97
M16
G05
G00X165.589Y-103.17
M15
G01X165.589Y-104.97
M16
G05
G00X166.014Y-103.17
M15
G01X166.014Y-104.97
M16
G05
G00X169.402Y-65.07
M15
G01X169.402Y-66.87
M16
G05
G00X170.352Y-65.07
M15
G01X170.352Y-66.87
M16
G05
G00X170.777Y-65.07
M15
G01X170.777Y-66.87
M16
G05
G00X174.165Y-84.12
M15
G01X174.165Y-85.92
M16
G05
G00X174.56Y-45.968
M15
G01X174.56Y-47.767
M16
G05
G00X175.114Y-84.12
M15
G01X175.114Y-85.92
M16
G05
G00X175.51Y-45.968
M15
G01X175.51Y-47.767
M16
G05
G00X175.54Y-84.12
M15
G01X175.54Y-85.92
M16
G05
G00X175.935Y-45.968
M15
G01X175.935Y-47.767
M16
G05
G00X183.689Y-103.17
M15
G01X183.689Y-104.97
M16
G05
G00X184.639Y-103.17
M15
G01X184.639Y-104.97
M16
G05
G00X185.064Y-103.17
M15
G01X185.064Y-104.97
M16
G05
G00X188.452Y-65.07
M15
G01X188.452Y-66.87
M16
G05
G00X189.402Y-65.07
M15
G01X189.402Y-66.87
M16
G05
G00X189.827Y-65.07
M15
G01X189.827Y-66.87
M16
G05
G00X190.833Y-122.22
M15
G01X190.833Y-124.02
M16
G05
G00X191.784Y-122.22
M15
G01X191.784Y-124.02
M16
G05
G00X192.208Y-122.22
M15
G01X192.208Y-124.02
M16
G05
G00X193.214Y-84.12
M15
G01X193.214Y-85.92
M16
G05
G00X193.61Y-45.968
M15
G01X193.61Y-47.767
M16
G05
G00X194.165Y-84.12
M15
G01X194.165Y-85.92
M16
G05
G00X194.56Y-45.968
M15
G01X194.56Y-47.767
M16
G05
G00X194.589Y-84.12
M15
G01X194.589Y-85.92
M16
G05
G00X194.985Y-45.968
M15
G01X194.985Y-47.767
M16
G05
G00X202.739Y-103.17
M15
G01X202.739Y-104.97
M16
G05
G00X203.689Y-103.17
M15
G01X203.689Y-104.97
M16
G05
G00X204.114Y-103.17
M15
G01X204.114Y-104.97
M16
G05
G00X207.502Y-65.07
M15
G01X207.502Y-66.87
M16
G05
G00X208.452Y-65.07
M15
G01X208.452Y-66.87
M16
G05
G00X208.877Y-65.07
M15
G01X208.877Y-66.87
M16
G05
G00X212.264Y-84.12
M15
G01X212.264Y-85.92
M16
G05
G00X213.214Y-84.12
M15
G01X213.214Y-85.92
M16
G05
G00X213.639Y-84.12
M15
G01X213.639Y-85.92
M16
G05
G00X221.775Y-103.19
M15
G01X221.775Y-104.99
M16
G05
G00X222.725Y-103.19
M15
G01X222.725Y-104.99
M16
G05
G00X223.15Y-103.19
M15
G01X223.15Y-104.99
M16
G05
G00X226.552Y-65.07
M15
G01X226.552Y-66.87
M16
G05
G00X227.502Y-65.07
M15
G01X227.502Y-66.87
M16
G05
G00X227.927Y-65.07
M15
G01X227.927Y-66.87
M16
G05
G00X231.314Y-84.12
M15
G01X231.314Y-85.92
M16
G05
G00X232.264Y-84.12
M15
G01X232.264Y-85.92
M16
G05
G00X232.689Y-84.12
M15
G01X232.689Y-85.92
M16
G05
G00X238.533Y-122.22
M15
G01X238.533Y-124.02
M16
G05
G00X239.483Y-122.22
M15
G01X239.483Y-124.02
M16
G05
G00X239.908Y-122.22
M15
G01X239.908Y-124.02
M16
G05
G00X240.47Y-45.9
M15
G01X240.47Y-47.7
M16
G05
G00X240.839Y-103.17
M15
G01X240.839Y-104.97
M16
G05
G00X241.42Y-45.9
M15
G01X241.42Y-47.7
M16
G05
G00X241.789Y-103.17
M15
G01X241.789Y-104.97
M16
G05
G00X241.845Y-45.9
M15
G01X241.845Y-47.7
M16
G05
G00X242.214Y-103.17
M15
G01X242.214Y-104.97
M16
G05
G00X245.602Y-65.07
M15
G01X245.602Y-66.87
M16
G05
G00X246.552Y-65.07
M15
G01X246.552Y-66.87
M16
G05
G00X246.977Y-65.07
M15
G01X246.977Y-66.87
M16
G05
G00X250.364Y-84.12
M15
G01X250.364Y-85.92
M16
G05
G00X251.314Y-84.12
M15
G01X251.314Y-85.92
M16
G05
G00X251.739Y-84.12
M15
G01X251.739Y-85.92
M16
G05
G00X259.47Y-45.938
M15
G01X259.47Y-47.737
M16
G05
G00X259.889Y-103.17
M15
G01X259.889Y-104.97
M16
G05
G00X260.42Y-45.938
M15
G01X260.42Y-47.737
M16
G05
G00X260.839Y-103.17
M15
G01X260.839Y-104.97
M16
G05
G00X260.845Y-45.938
M15
G01X260.845Y-47.737
M16
G05
G00X261.264Y-103.17
M15
G01X261.264Y-104.97
M16
G05
G00X264.652Y-65.07
M15
G01X264.652Y-66.87
M16
G05
G00X265.602Y-65.07
M15
G01X265.602Y-66.87
M16
G05
G00X266.027Y-65.07
M15
G01X266.027Y-66.87
M16
G05
G00X269.414Y-84.12
M15
G01X269.414Y-85.92
M16
G05
G00X269.414Y-122.22
M15
G01X269.414Y-124.02
M16
G05
G00X270.364Y-84.12
M15
G01X270.364Y-85.92
M16
G05
G00X270.364Y-122.22
M15
G01X270.364Y-124.02
M16
G05
G00X270.789Y-84.12
M15
G01X270.789Y-85.92
M16
G05
G00X270.789Y-122.22
M15
G01X270.789Y-124.02
M16
G05
G00X278.52Y-45.938
M15
G01X278.52Y-47.737
M16
G05
G00X278.94Y-103.17
M15
G01X278.94Y-104.97
M16
G05
G00X279.47Y-45.938
M15
G01X279.47Y-47.737
M16
G05
G00X279.889Y-103.17
M15
G01X279.889Y-104.97
M16
G05
G00X279.895Y-45.938
M15
G01X279.895Y-47.737
M16
G05
G00X280.315Y-103.17
M15
G01X280.315Y-104.97
M16
G05
G00X283.702Y-65.07
M15
G01X283.702Y-66.87
M16
G05
G00X284.652Y-65.07
M15
G01X284.652Y-66.87
M16
G05
G00X285.077Y-65.07
M15
G01X285.077Y-66.87
M16
G05
G00X288.464Y-84.12
M15
G01X288.464Y-85.92
M16
G05
G00X289.414Y-84.12
M15
G01X289.414Y-85.92
M16
G05
G00X289.839Y-84.12
M15
G01X289.839Y-85.92
M16
G05
G00X290.845Y-122.22
M15
G01X290.845Y-124.02
M16
G05
G00X291.796Y-122.22
M15
G01X291.796Y-124.02
M16
G05
G00X292.22Y-122.22
M15
G01X292.22Y-124.02
M16
G05
G00X297.57Y-45.938
M15
G01X297.57Y-47.737
M16
G05
G00X297.989Y-103.17
M15
G01X297.989Y-104.97
M16
G05
G00X298.52Y-45.938
M15
G01X298.52Y-47.737
M16
G05
G00X298.94Y-103.17
M15
G01X298.94Y-104.97
M16
G05
G00X298.945Y-45.938
M15
G01X298.945Y-47.737
M16
G05
G00X299.364Y-103.17
M15
G01X299.364Y-104.97
M16
G05
G00X302.752Y-65.07
M15
G01X302.752Y-66.87
M16
G05
G00X303.702Y-65.07
M15
G01X303.702Y-66.87
M16
G05
G00X304.127Y-65.07
M15
G01X304.127Y-66.87
M16
G05
G00X314.659Y-84.12
M15
G01X314.659Y-85.92
M16
G05
G00X315.608Y-84.12
M15
G01X315.608Y-85.92
M16
G05
G00X316.034Y-84.12
M15
G01X316.034Y-85.92
M16
G05
G00X317.04Y-122.22
M15
G01X317.04Y-124.02
M16
G05
G00X317.99Y-122.22
M15
G01X317.99Y-124.02
M16
G05
G00X318.415Y-122.22
M15
G01X318.415Y-124.02
M16
G05
G00X319.421Y-103.17
M15
G01X319.421Y-104.97
M16
G05
G00X320.37Y-103.17
M15
G01X320.37Y-104.97
M16
G05
G00X320.796Y-103.17
M15
G01X320.796Y-104.97
M16
G05
G00X321.79Y-45.997
M15
G01X321.79Y-47.797
M16
G05
G00X321.802Y-65.07
M15
G01X321.802Y-66.87
M16
G05
G00X322.74Y-45.997
M15
G01X322.74Y-47.797
M16
G05
G00X322.752Y-65.07
M15
G01X322.752Y-66.87
M16
G05
G00X323.165Y-45.997
M15
G01X323.165Y-47.797
M16
G05
G00X323.177Y-65.07
M15
G01X323.177Y-66.87
M16
G05
T0
M30
