<?xml version="1.0" encoding="UTF-8" standalone="no"?>
<!-- Created with Vectornator (http://vectornator.io/) -->

<svg
   height="100%"
   stroke-miterlimit="10"
   style="fill-rule:nonzero;clip-rule:evenodd;stroke-linecap:round;stroke-linejoin:round;"
   version="1.1"
   viewBox="0 0 1365.33 1365.33"
   width="100%"
   xml:space="preserve"
   id="svg185"
   sodipodi:docname="noraneko_small.svg"
   inkscape:version="1.2 (1:1.2.1+202207142221+cd75a1ee6d)"
   xmlns:inkscape="http://www.inkscape.org/namespaces/inkscape"
   xmlns:sodipodi="http://sodipodi.sourceforge.net/DTD/sodipodi-0.dtd"
   xmlns="http://www.w3.org/2000/svg"
   xmlns:svg="http://www.w3.org/2000/svg"
   xmlns:vectornator="http://vectornator.io"><sodipodi:namedview
   id="namedview187"
   pagecolor="#ffffff"
   bordercolor="#666666"
   borderopacity="1.0"
   inkscape:showpageshadow="2"
   inkscape:pageopacity="0.0"
   inkscape:pagecheckerboard="0"
   inkscape:deskcolor="#d1d1d1"
   showgrid="false"
   inkscape:zoom="0.7521991"
   inkscape:cx="594.25756"
   inkscape:cy="682.665"
   inkscape:window-width="3440"
   inkscape:window-height="1376"
   inkscape:window-x="0"
   inkscape:window-y="27"
   inkscape:window-maximized="1"
   inkscape:current-layer="svg185" />
<defs
   id="defs180" />
<g
   id="g425"
   vectornator:layerName="g425"
   transform="matrix(0.08,0,0,0.08,575.98326,610.56941)">
<path
   d="m 578.43,1169.56 c -48.822,-1.11 -63.183,-2.33 -104,-8.82 -51.002,-8.11 -88.415,-17.63 -140.55,-35.79 -24.174,-8.42 -60.606,-26.83 -84.031,-42.45 -39.002,-26.02 -69.355,-77.93 -86.656,-148.198 -5.975,-24.27 -12.108,-77.871 -12.13,-106 -0.005,-6.234 -0.592,-18.378 -1.306,-26.989 -0.713,-8.61 -1.62,-47.91 -2.015,-87.333 -0.395,-39.423 -1.241,-77.378 -1.879,-84.345 -3.606,-39.357 -12.523,-98.876 -18.679,-124.667 -2.1,-8.8 -6.357,-26.8 -9.46,-40 -3.103,-13.2 -8.508,-35.4 -12.011,-49.333 -6.8056,-27.071 -14.2218,-64.539 -20.0572,-101.333 -0.8141,-5.134 -3.1791,-16.537 -5.2555,-25.342 -4.889,-20.731 -7.1319,-34.032 -11.26,-66.776 -6.0804,-48.231 -4.5793,-55.449 13.1634,-63.297 5.1415,-2.274 7.8949,-2.694 13.1208,-2.001 16.6265,2.206 43.5905,15.292 75.5565,36.671 32.197,21.534 88.816,65.041 118.399,90.98 29.137,25.548 111.344,105.37 136.982,133.009 10.614,11.442 14.125,12.181 32.138,6.765 4.438,-1.335 18.238,-4.001 30.667,-5.924 12.428,-1.924 27.397,-4.357 33.263,-5.406 13.123,-2.347 40.316,-5.434 66,-7.491 21.774,-1.744 86.833,-0.798 105.334,1.532 24.104,3.035 76.389,14.326 97.34,21.02 21.314,6.81 23.128,7.189 27.135,5.666 1.83,-0.696 34.421,-32.415 72.426,-70.487 87.821,-87.978 117.915,-115.663 159.675,-146.889 48.6,-36.34 91.75,-58.697 113.3,-58.697 9.15,0 15.03,3.807 19.36,12.523 l 3.23,6.519 -2.87,21.479 c -1.58,11.814 -4.4,30.179 -6.27,40.812 -5.04,28.744 -25.57,131.996 -29.3,147.334 -2.98,12.314 -9.69,48.158 -12.85,68.666 -3.56,23.131 -5.75,34.69 -8.7,45.841 -7.92,29.902 -14.07,62.942 -15.28,82.159 -3.92,61.831 -5.21,88.079 -5.19,105.334 0.01,10.633 -0.57,32.533 -1.29,48.666 -0.73,16.134 -1.94,45.534 -2.71,65.334 -1.49,38.713 -4.27,64.02 -11.42,104 -4.17,23.267 -12.06,54.702 -15.23,60.619 -0.72,1.347 -3.36,8.059 -5.87,14.915 -15.27,41.774 -27.35,61.164 -52.91,84.934 -22.541,20.95 -31.882,27.49 -56.576,39.63 -86.587,42.55 -163.637,59.72 -283.629,63.23 -24.404,0.71 -46.771,1.2 -49.705,1.1 -2.933,-0.11 -24.533,-0.63 -48,-1.17 z m 156.23,-121.42 c 23.6,-9.42 29.046,-15.93 35.101,-23.85 1.642,-2.14 1.156,-7.9 -1.129,-7.9 -0.792,0 -14.877,5.75 -25.797,11.25 -18.685,9.4 -20.372,10 -28.602,10 -13.464,0 -38.687,-9.01 -45.384,-16.21 -5.386,-5.79 -9.728,-17.16 -9.742,-25.522 -0.017,-10.226 -3.612,-14.273 -12.68,-14.273 -4.721,0 -6.869,0.749 -9.393,3.273 -2.814,2.813 -3.273,4.507 -3.273,12.066 0,5.076 -0.818,10.376 -1.934,12.536 -3.328,6.43 -6.531,17.26 -14.756,20.37 -6.762,2.56 -23.725,3.26 -30.213,3.29 -4.341,0.01 -26.266,-4.24 -31.169,-5.32 -21.461,-4.71 -15.869,-7.84 -25.157,-9.48 -14.418,-2.55 3.024,15.13 14.285,20.81 14.603,7.36 43.075,9.09 58.944,9.1 12.026,0.02 14.152,-0.37 21.682,-3.93 4.592,-2.17 11.128,-6.07 14.525,-8.67 3.397,-2.59 7.497,-4.71 9.111,-4.71 1.614,0 6.778,2.51 11.475,5.57 12.512,8.16 36.779,15.44 52.106,15.62 10.029,0.12 12.953,-0.41 22,-4.02 z M 903.097,873.729 c 37.319,-8.281 72.583,-31.153 91.038,-59.046 19.605,-29.634 28.035,-71.231 21.145,-104.358 -5,-24.068 -19.814,-49.802 -35.5,-61.675 -18.36,-13.897 -33.403,-18.348 -62.016,-18.348 -24.8,0 -30.354,1.504 -55.912,15.14 -14.284,7.622 -18.557,10.742 -30.877,22.547 -36.357,34.839 -60.544,77.979 -62.224,110.985 -1.264,24.811 5.06,40.279 24.254,59.328 18.511,18.37 37.158,28.492 63.894,34.681 16.67,3.859 31.118,4.092 46.198,0.746 z m -511.052,-0.746 c 14.252,-2.521 25.241,-7.239 38.338,-16.459 22.163,-15.602 37.828,-33.435 43.533,-49.556 2.493,-7.046 3.064,-11.407 3.054,-23.333 -0.011,-13.008 -0.51,-16.161 -4.407,-27.88 -6.078,-18.276 -11.691,-29.979 -21.477,-44.781 -12.577,-19.024 -21.851,-29.606 -37.322,-42.588 -36.197,-30.371 -62.821,-42.115 -95.334,-42.054 -19.532,0.037 -26.057,2.239 -42.361,14.297 -26.413,19.536 -43.406,43.759 -50.57,72.089 -2.363,9.346 -2.648,13.549 -2.048,30.22 0.962,26.748 4.87,38.703 20.058,61.364 15.667,23.374 23.256,31.516 41.744,44.783 19.842,14.239 36.856,21.72 55.844,24.555 11.565,1.727 39.506,1.367 50.948,-0.657 z"
   fill="#000000"
   fill-rule="nonzero"
   opacity="1"
   stroke="none"
   id="path182" />
</g>
</svg>
