<?xml version="1.0" encoding="UTF-8" standalone="no"?>
<!DOCTYPE svg PUBLIC "-//W3C//DTD SVG 1.1//EN" "http://www.w3.org/Graphics/SVG/1.1/DTD/svg11.dtd">
<!-- Created with Vectornator (http://vectornator.io/) -->
<svg height="100%" stroke-miterlimit="10" style="fill-rule:nonzero;clip-rule:evenodd;stroke-linecap:round;stroke-linejoin:round;" version="1.1" viewBox="0 0 1365.33 1365.33" width="100%" xml:space="preserve" xmlns="http://www.w3.org/2000/svg" xmlns:vectornator="http://vectornator.io" xmlns:xlink="http://www.w3.org/1999/xlink">
<defs/>
<g id="g425" vectornator:layerName="g425">
<path d="M578.43 1169.56C529.608 1168.45 515.247 1167.23 474.43 1160.74C423.428 1152.63 386.015 1143.11 333.88 1124.95C309.706 1116.53 273.274 1098.12 249.849 1082.5C210.847 1056.48 180.494 1004.57 163.193 934.302C157.218 910.032 151.085 856.431 151.063 828.302C151.058 822.068 150.471 809.924 149.757 801.313C149.044 792.703 148.137 753.403 147.742 713.98C147.347 674.557 146.501 636.602 145.863 629.635C142.257 590.278 133.34 530.759 127.184 504.968C125.084 496.168 120.827 478.168 117.724 464.968C114.621 451.768 109.216 429.568 105.713 415.635C98.9074 388.564 91.4912 351.096 85.6558 314.302C84.8417 309.168 82.4767 297.765 80.4003 288.96C75.5113 268.229 73.2684 254.928 69.1403 222.184C63.0599 173.953 64.561 166.735 82.3037 158.887C87.4452 156.613 90.1986 156.193 95.4245 156.886C112.051 159.092 139.015 172.178 170.981 193.557C203.178 215.091 259.797 258.598 289.38 284.537C318.517 310.085 400.724 389.907 426.362 417.546C436.976 428.988 440.487 429.727 458.5 424.311C462.938 422.976 476.738 420.31 489.167 418.387C501.595 416.463 516.564 414.03 522.43 412.981C535.553 410.634 562.746 407.547 588.43 405.49C610.204 403.746 675.263 404.692 693.764 407.022C717.868 410.057 770.153 421.348 791.104 428.042C812.418 434.852 814.232 435.231 818.239 433.708C820.069 433.012 852.66 401.293 890.665 363.221C978.486 275.243 1008.58 247.558 1050.34 216.332C1098.94 179.992 1142.09 157.635 1163.64 157.635C1172.79 157.635 1178.67 161.442 1183 170.158L1186.23 176.677L1183.36 198.156C1181.78 209.97 1178.96 228.335 1177.09 238.968C1172.05 267.712 1151.52 370.964 1147.79 386.302C1144.81 398.616 1138.1 434.46 1134.94 454.968C1131.38 478.099 1129.19 489.658 1126.24 500.809C1118.32 530.711 1112.17 563.751 1110.96 582.968C1107.04 644.799 1105.75 671.047 1105.77 688.302C1105.78 698.935 1105.2 720.835 1104.48 736.968C1103.75 753.102 1102.54 782.502 1101.77 802.302C1100.28 841.015 1097.5 866.322 1090.35 906.302C1086.18 929.569 1078.29 961.004 1075.12 966.921C1074.4 968.268 1071.76 974.98 1069.25 981.836C1053.98 1023.61 1041.9 1043 1016.34 1066.77C993.799 1087.72 984.458 1094.26 959.764 1106.4C873.177 1148.95 796.127 1166.12 676.135 1169.63C651.731 1170.34 629.364 1170.83 626.43 1170.73C623.497 1170.62 601.897 1170.1 578.43 1169.56ZM734.66 1048.14C758.26 1038.72 763.706 1032.21 769.761 1024.29C771.403 1022.15 770.917 1016.39 768.632 1016.39C767.84 1016.39 753.755 1022.14 742.835 1027.64C724.15 1037.04 722.463 1037.64 714.233 1037.64C700.769 1037.64 675.546 1028.63 668.849 1021.43C663.463 1015.64 659.121 1004.27 659.107 995.908C659.09 985.682 655.495 981.635 646.427 981.635C641.706 981.635 639.558 982.384 637.034 984.908C634.22 987.721 633.761 989.415 633.761 996.974C633.761 1002.05 632.943 1007.35 631.827 1009.51C628.499 1015.94 625.296 1026.77 617.071 1029.88C610.309 1032.44 593.346 1033.14 586.858 1033.17C582.517 1033.18 560.592 1028.93 555.689 1027.85C534.228 1023.14 539.82 1020.01 530.532 1018.37C516.114 1015.82 533.556 1033.5 544.817 1039.18C559.42 1046.54 587.892 1048.27 603.761 1048.28C615.787 1048.3 617.913 1047.91 625.443 1044.35C630.035 1042.18 636.571 1038.28 639.968 1035.68C643.365 1033.09 647.465 1030.97 649.079 1030.97C650.693 1030.97 655.857 1033.48 660.554 1036.54C673.066 1044.7 697.333 1051.98 712.66 1052.16C722.689 1052.28 725.613 1051.75 734.66 1048.14ZM903.097 873.729C940.416 865.448 975.68 842.576 994.135 814.683C1013.74 785.049 1022.17 743.452 1015.28 710.325C1010.28 686.257 995.466 660.523 979.78 648.65C961.42 634.753 946.377 630.302 917.764 630.302C892.964 630.302 887.41 631.806 861.852 645.442C847.568 653.064 843.295 656.184 830.975 667.989C794.618 702.828 770.431 745.968 768.751 778.974C767.487 803.785 773.811 819.253 793.005 838.302C811.516 856.672 830.163 866.794 856.899 872.983C873.569 876.842 888.017 877.075 903.097 873.729ZM392.045 872.983C406.297 870.462 417.286 865.744 430.383 856.524C452.546 840.922 468.211 823.089 473.916 806.968C476.409 799.922 476.98 795.561 476.97 783.635C476.959 770.627 476.46 767.474 472.563 755.755C466.485 737.479 460.872 725.776 451.086 710.974C438.509 691.95 429.235 681.368 413.764 668.386C377.567 638.015 350.943 626.271 318.43 626.332C298.898 626.369 292.373 628.571 276.069 640.629C249.656 660.165 232.663 684.388 225.499 712.718C223.136 722.064 222.851 726.267 223.451 742.938C224.413 769.686 228.321 781.641 243.509 804.302C259.176 827.676 266.765 835.818 285.253 849.085C305.095 863.324 322.109 870.805 341.097 873.64C352.662 875.367 380.603 875.007 392.045 872.983Z" fill="#000000" fill-rule="nonzero" opacity="1" stroke="none"/>
</g>
</svg>
