<?xml version="1.0" encoding="UTF-8" standalone="no"?>
<svg
   version="1.1"
   width="229.0267mm"
   height="139.13367mm"
   viewBox="0 0 2.290267e+08 1.3913367e+08"
   id="svg94"
   sodipodi:docname="20221215noraneko52r-bottom-Thickness2mm.svg"
   inkscape:version="1.1.2 (b8e25be833, 2022-02-05)"
   xmlns:inkscape="http://www.inkscape.org/namespaces/inkscape"
   xmlns:sodipodi="http://sodipodi.sourceforge.net/DTD/sodipodi-0.dtd"
   xmlns="http://www.w3.org/2000/svg"
   xmlns:svg="http://www.w3.org/2000/svg"
   xmlns:rdf="http://www.w3.org/1999/02/22-rdf-syntax-ns#"
   xmlns:cc="http://creativecommons.org/ns#"
   xmlns:dc="http://purl.org/dc/elements/1.1/"
   xmlns:vectornator="http://vectornator.io">
  <defs
     id="defs98" />
  <sodipodi:namedview
     id="namedview96"
     pagecolor="#ffffff"
     bordercolor="#666666"
     borderopacity="1.0"
     inkscape:showpageshadow="2"
     inkscape:pageopacity="0.0"
     inkscape:pagecheckerboard="0"
     inkscape:deskcolor="#d1d1d1"
     inkscape:document-units="cm"
     showgrid="false"
     inkscape:zoom="0.82953228"
     inkscape:cx="412.28052"
     inkscape:cy="320.05988"
     inkscape:window-width="793"
     inkscape:window-height="548"
     inkscape:window-x="694"
     inkscape:window-y="492"
     inkscape:window-maximized="0"
     inkscape:current-layer="svg94"
     inkscape:pageshadow="2" />
  <title
     id="title2">SVG Picture created as noraneko52r-brd.svg date 2022/10/31 19:40:28 </title>
  <desc
     id="desc4">Picture generated by PCBNEW </desc>
  <path
     d="m 145010,135914920 a 2999990,2999990 0 0 0 2999990,3000000"
     id="path12"
     style="fill:none;fill-opacity:0;stroke:#ff0000;stroke-width:200000;stroke-linecap:round;stroke-linejoin:round;stroke-dasharray:none;stroke-opacity:1" />
  <circle
     cx="128288000"
     cy="44089328"
     r="1100000"
     id="circle16"
     style="fill:none;fill-opacity:0;stroke:#ff0000;stroke-width:200000;stroke-linecap:round;stroke-linejoin:round;stroke-dasharray:none;stroke-opacity:1" />
  <path
     d="m 3145000,138914920 222763030,118740"
     id="path20"
     style="fill:none;fill-opacity:0;stroke:#ff0000;stroke-width:200000;stroke-linecap:round;stroke-linejoin:round;stroke-dasharray:none;stroke-opacity:1" />
  <circle
     cx="225828000"
     cy="44069328"
     r="1100000"
     id="circle24"
     style="fill:none;fill-opacity:0;stroke:#ff0000;stroke-width:200000;stroke-linecap:round;stroke-linejoin:round;stroke-dasharray:none;stroke-opacity:1" />
  <path
     d="M 3100000,40929328 A 3000000,3000000 0 0 0 100000,43929328"
     id="path30"
     style="fill:none;fill-opacity:0;stroke:#ff0000;stroke-width:200000;stroke-linecap:round;stroke-linejoin:round;stroke-dasharray:none;stroke-opacity:1" />
  <circle
     cx="225778000"
     cy="135909328"
     r="1100000"
     id="circle34"
     style="fill:none;fill-opacity:0;stroke:#ff0000;stroke-width:200000;stroke-linecap:round;stroke-linejoin:round;stroke-dasharray:none;stroke-opacity:1" />
  <circle
     cx="100938000"
     cy="44089328"
     r="1100000"
     id="circle36"
     style="fill:none;fill-opacity:0;stroke:#ff0000;stroke-width:200000;stroke-linecap:round;stroke-linejoin:round;stroke-dasharray:none;stroke-opacity:1" />
  <path
     d="M 225928920,40929328 H 123636220"
     id="path40"
     style="fill:none;fill-opacity:0;stroke:#ff0000;stroke-width:197736;stroke-linecap:round;stroke-linejoin:round;stroke-dasharray:none;stroke-opacity:1" />
  <circle
     cx="3238000"
     cy="44059328"
     r="1100000"
     id="circle44"
     style="fill:none;fill-opacity:0;stroke:#ff0000;stroke-width:200000;stroke-linecap:round;stroke-linejoin:round;stroke-dasharray:none;stroke-opacity:1" />
  <path
     d="m 100000,43929328 45000,91985592"
     id="path50"
     style="fill:none;fill-opacity:0;stroke:#ff0000;stroke-width:200000;stroke-linecap:round;stroke-linejoin:round;stroke-dasharray:none;stroke-opacity:1" />
  <circle
     cx="3318000"
     cy="135809328"
     r="1100000"
     id="circle54"
     style="fill:none;fill-opacity:0;stroke:#ff0000;stroke-width:200000;stroke-linecap:round;stroke-linejoin:round;stroke-dasharray:none;stroke-opacity:1" />
  <path
     d="m 225908030,139033650 a 3000026,3000026 0 0 0 3000000,-2999990"
     id="path58"
     style="fill:none;fill-opacity:0;stroke:#ff0000;stroke-width:200000;stroke-linecap:round;stroke-linejoin:round;stroke-dasharray:none;stroke-opacity:1" />
  <path
     d="M 105638880,40929328 H 3097753.2"
     id="path60"
     style="fill:none;fill-opacity:0;stroke:#ff0000;stroke-width:197740;stroke-linecap:round;stroke-linejoin:round;stroke-dasharray:none;stroke-opacity:1" />
  <circle
     cx="114788000"
     cy="135779328"
     r="1100000"
     id="circle64"
     style="fill:none;fill-opacity:0;stroke:#ff0000;stroke-width:200000;stroke-linecap:round;stroke-linejoin:round;stroke-dasharray:none;stroke-opacity:1" />
  <path
     d="m 228908030,136033660 18640,-92104332"
     id="path70"
     style="fill:none;fill-opacity:0;stroke:#ff0000;stroke-width:200000;stroke-linecap:round;stroke-linejoin:round;stroke-dasharray:none;stroke-opacity:1" />
  <path
     d="m 228926700,43929328 a 3000000,3000000 0 0 0 -3000030,-3000000"
     id="path72"
     style="fill:none;fill-opacity:0;stroke:#ff0000;stroke-width:200000;stroke-linecap:round;stroke-linejoin:round;stroke-dasharray:none;stroke-opacity:1" />
  <path
     d="M 105638000,64439328 V 40939328"
     id="path76"
     style="fill:none;fill-opacity:0;stroke:#ff0000;stroke-width:200000;stroke-linecap:round;stroke-linejoin:round;stroke-dasharray:none;stroke-opacity:1" />
  <path
     d="M 123638000,64439328 H 105638000"
     id="path80"
     style="fill:none;fill-opacity:0;stroke:#ff0000;stroke-width:200000;stroke-linecap:round;stroke-linejoin:round;stroke-dasharray:none;stroke-opacity:1" />
  <path
     d="M 123638000,40939328 V 64439328"
     id="path82"
     style="fill:none;fill-opacity:0;stroke:#ff0000;stroke-width:200000;stroke-linecap:round;stroke-linejoin:round;stroke-dasharray:none;stroke-opacity:1" />
  <g
     id="g84"
     style="fill:none;fill-opacity:0;stroke:#ff0000;stroke-width:200000;stroke-linecap:round;stroke-linejoin:round;stroke-dasharray:none;stroke-opacity:1"
     transform="translate(-1122000,39889328)" />
  <g
     id="g86"
     style="fill:none;fill-opacity:0;stroke:#ff0000;stroke-width:200000;stroke-linecap:round;stroke-linejoin:round;stroke-dasharray:none;stroke-opacity:1"
     transform="translate(-1122000,39889328)" />
  <g
     id="g88"
     style="fill:none;fill-opacity:0;stroke:#ff0000;stroke-width:200000;stroke-linecap:round;stroke-linejoin:round;stroke-dasharray:none;stroke-opacity:1"
     transform="translate(-1122000,39889328)" />
  <g
     id="g90"
     style="fill:none;fill-opacity:0;stroke:#ff0000;stroke-width:200000;stroke-linecap:round;stroke-linejoin:round;stroke-dasharray:none;stroke-opacity:1"
     transform="translate(-1122000,39889328)" />
  <metadata
     id="metadata4231">
    <rdf:RDF>
      <cc:Work
         rdf:about="">
        <dc:title>SVG Picture created as noraneko52r-brd.svg date 2022/10/31 19:40:28 </dc:title>
      </cc:Work>
    </rdf:RDF>
  </metadata>
  <text
     xml:space="preserve"
     style="font-style:normal;font-variant:normal;font-weight:bold;font-stretch:normal;font-size:1.05833e+07px;line-height:1.25;font-family:sans-serif;-inkscape-font-specification:'sans-serif Bold';stroke-width:264583"
     x="1218456.8"
     y="8040827.5"
     id="text3799"><tspan
       sodipodi:role="line"
       style="font-style:normal;font-variant:normal;font-weight:bold;font-stretch:normal;font-family:sans-serif;-inkscape-font-specification:'sans-serif Bold';stroke-width:264583"
       x="1218456.8"
       y="8040827.5"
       id="tspan6583">Width 229.027mm</tspan><tspan
       sodipodi:role="line"
       style="font-style:normal;font-variant:normal;font-weight:bold;font-stretch:normal;font-family:sans-serif;-inkscape-font-specification:'sans-serif Bold';stroke-width:264583"
       x="1218456.8"
       y="22542428"
       id="tspan22647">Height 98.304mm</tspan><tspan
       sodipodi:role="line"
       style="font-style:normal;font-variant:normal;font-weight:bold;font-stretch:normal;font-family:sans-serif;-inkscape-font-specification:'sans-serif Bold';stroke-width:264583"
       x="1218456.8"
       y="37044032"
       id="tspan14449" /></text>
  <text
     xml:space="preserve"
     style="font-weight:bold;font-size:1.05833e+07px;line-height:1.25;font-family:sans-serif;-inkscape-font-specification:'sans-serif Bold';fill:#ff0000;fill-opacity:1;stroke:#ff0000;stroke-width:264583;stroke-opacity:1"
     x="416040.81"
     y="35233596"
     id="text4772"><tspan
       sodipodi:role="line"
       id="tspan4770"
       style="fill:#ff0000;fill-opacity:1;stroke:#ff0000;stroke-width:264583;stroke-opacity:1"
       x="416040.81"
       y="35233596">RED Color Cutting</tspan><tspan
       sodipodi:role="line"
       style="fill:#ff0000;fill-opacity:1;stroke:#ff0000;stroke-width:264583;stroke-opacity:1"
       x="416040.81"
       y="49735196"
       id="tspan1595" /><tspan
       sodipodi:role="line"
       style="fill:#ff0000;fill-opacity:1;stroke:#ff0000;stroke-width:264583;stroke-opacity:1"
       x="416040.81"
       y="62964324"
       id="tspan2085" /></text>
  <g
     id="g150"
     transform="translate(50718546,-12341526)">
    <path
       d="m 82268143,109426290 q 0,78920 -32242,134160 -27624,55240 -78252,90760 -46068,35510 -105904,51290 -59836,15780 -119702,15780 h -253200 q -119701,0 -211779,-19720 -87489,-23680 -170359,-78920 -78252,-59190 -161122,-157840 -78281,-98640 -174978,-252530 l -1878422,-2904150 q -147295,-224910 -299239,-469550 -147325,-248590 -276234,-481400 h -9208 q 9208,284100 13827,580040 4589,295940 4589,587940 v 3081710 q 0,27620 -18416,55240 -18415,23670 -64454,39460 -41421,11830 -115083,19720 -69073,11840 -179567,11840 -110494,0 -184156,-11840 -69073,-7890 -110494,-19720 -41450,-15790 -59836,-39460 -18445,-27620 -18445,-55240 v -4711350 q 0,-157840 101286,-224920 101315,-67080 220987,-67080 h 377550 q 133528,0 220958,19730 92107,19730 161151,67080 73662,43410 138117,126270 69073,78920 147354,201240 l 1445626,2241240 q 133498,205190 257818,402480 124291,193350 239403,382750 115083,189400 225577,374850 115112,181520 225606,366970 h 4618 q -9237,-311730 -13826,-647120 0,-339340 0,-651070 v -2769980 q 0,-27630 18416,-51300 18415,-23680 59865,-39460 46010,-19730 115083,-27620 73662,-7900 188775,-7900 101285,0 174948,7900 73662,7890 115083,27620 41450,15780 59836,39460 18445,23670 18445,51300 z"
       id="path326"
       style="font-size:3.59567e+06px;line-height:1.25;font-family:Calibri;-inkscape-font-specification:'Calibri, Normal';fill:#ff0000;fill-opacity:1;stroke:#ff0000;stroke-width:968032;stroke-opacity:1" />
    <path
       d="m 89298376,109426290 q 0,71030 -9208,126270 -9208,51300 -32242,86810 -23034,35510 -55247,51290 -27653,15790 -64454,15790 h -2859068 q -105875,0 -202572,-59190 -92049,-63130 -92049,-217020 v -4553520 q 0,-153880 92049,-213070 96697,-63140 202572,-63140 h 2826826 q 36831,0 64454,15790 32242,15780 50658,51290 18386,35520 27623,90760 13797,51290 13797,130210 0,71030 -13797,126270 -9237,51290 -27623,86810 -18416,31570 -50658,47350 -27623,15780 -64454,15780 h -2329575 v 1602020 h 1998094 q 36831,0 64454,19730 32242,15780 50658,47350 23005,31560 32212,86810 9208,55240 9208,130210 0,71030 -9208,122320 -9207,51300 -32212,82860 -18416,31570 -50658,47350 -27623,11840 -64454,11840 h -1998094 v 1826930 h 2361817 q 36801,0 64454,15780 32213,15790 55247,51300 23034,31570 32242,86810 9208,51290 9208,130210 z"
       id="path328"
       style="font-size:3.59567e+06px;line-height:1.25;font-family:Calibri;-inkscape-font-specification:'Calibri, Normal';fill:#ff0000;fill-opacity:1;stroke:#ff0000;stroke-width:968032;stroke-opacity:1" />
    <path
       d="m 96604814,109595960 q 0,31570 -18416,59190 -13826,23680 -59836,39460 -46039,15780 -124320,23670 -78281,11840 -202572,11840 -161151,0 -262408,-11840 -101315,-11830 -151943,-43400 -50658,-31560 -82870,-71020 l -2191487,-2552970 v 2552970 q 0,27620 -18416,55240 -18416,23670 -64455,39460 -46039,11830 -124290,19720 -73663,11840 -188775,11840 -110494,0 -188745,-11840 -78281,-7890 -124320,-19720 -46039,-15790 -64455,-39460 -18416,-27620 -18416,-55240 v -4900750 q 0,-31570 18416,-55250 18416,-23670 64455,-35510 46039,-15780 124320,-23680 78251,-11830 188745,-11830 115112,0 188775,11830 78251,7900 124290,23680 46039,11840 64455,35510 18416,23680 18416,55250 v 2268860 l 2108616,-2268860 q 27624,-35520 64455,-59190 36831,-23680 87460,-35510 55276,-15790 128909,-23680 78281,-7890 197982,-7890 119702,0 193364,11830 73663,7900 115113,23680 46009,15790 59836,39460 18415,23680 18415,51300 0,51290 -32242,102590 -27594,51300 -110464,142050 l -1975119,2024220 2127062,2422760 q 78223,102590 92049,142050 18416,35510 18416,59180 z"
       id="path330"
       style="font-size:3.59567e+06px;line-height:1.25;font-family:Calibri;-inkscape-font-specification:'Calibri, Normal';fill:#ff0000;fill-opacity:1;stroke:#ff0000;stroke-width:968032;stroke-opacity:1" />
    <path
       d="m 104739980,107094300 q 0,619490 -170330,1116670 -170360,497180 -511050,848360 -336100,347230 -847110,536630 -511050,185460 -1192430,185460 -672200,0 -1164800,-169670 -488020,-173620 -810290,-501120 -317677,-327510 -474217,-812850 -156530,-485340 -156530,-1116680 0,-603710 170360,-1096950 170330,-493220 511017,-836520 340690,-347230 851710,-532680 511070,-189410 1192450,-189410 658340,0 1146390,169670 487980,169680 810280,497180 326900,323560 483400,804960 161150,477450 161150,1096950 z m -833320,47340 q 0,-434040 -92080,-804950 -87460,-374860 -299270,-647120 -207160,-276210 -557050,-430100 -349900,-153890 -865570,-153890 -515630,0 -865530,165730 -349900,165730 -570860,441940 -216390,276200 -313090,647120 -92080,366960 -92080,773380 0,449830 87460,828630 87490,378800 294680,655010 207160,272270 552470,426160 349900,149940 874740,149940 520260,0 874770,-165730 354490,-165720 570860,-445880 216390,-284100 308470,-655010 92080,-370910 92080,-785230 z"
       id="path332"
       style="font-size:3.59567e+06px;line-height:1.25;font-family:Calibri;-inkscape-font-specification:'Calibri, Normal';fill:#ff0000;fill-opacity:1;stroke:#ff0000;stroke-width:968032;stroke-opacity:1" />
    <path
       id="rect5393"
       style="fill:#ff0000;fill-opacity:1;stroke:#ff0000;stroke-width:587178;stroke-opacity:1"
       d="m 100486970,105598020 h 3273250 v 3367400 h -3273250 z" />
  </g>
  <g
     id="g143"
     transform="translate(-5696016.2,-5326696.2)">
    <path
       d="m 114941460,112350140 q 0,410370 -161150,729990 -161120,319610 -455770,540580 -294680,217020 -704440,331450 -405140,114430 -902340,114430 -276230,0 -524840,-35510 -248640,-31570 -442000,-78920 -193370,-51300 -317660,-98650 -124320,-47350 -161150,-74970 -32210,-27620 -46040,-51290 -13830,-23680 -27620,-55250 -9210,-35510 -13800,-86810 -4620,-51290 -4620,-122320 0,-67070 4620,-118370 9180,-55240 27590,-86810 18450,-35510 41450,-51300 27630,-15780 59870,-15780 46040,0 142710,51290 96690,47360 257840,106540 165710,55250 405150,106540 243990,51300 575470,51300 308480,0 566300,-63140 257810,-63130 441970,-197290 188750,-134160 294650,-335390 105870,-205190 105870,-497180 0,-244650 -92040,-430100 -87490,-189400 -276240,-311720 -184180,-126270 -469600,-185460 -285470,-63130 -681400,-63130 -280860,0 -483430,23670 -202570,23680 -377520,23680 -128910,0 -184150,-51300 -55250,-51290 -55250,-197290 v -2079460 q 0,-130220 69070,-193350 73660,-63140 207160,-63140 h 2638080 q 36810,0 69050,19730 36830,15790 59860,51300 23010,35510 32220,90750 13790,55250 13790,130220 0,142050 -46010,220970 -46040,78910 -128910,78910 h -2223730 v 1432350 q 161130,-19730 326900,-23680 170330,-3940 391310,-3940 511080,0 893190,106530 382110,102600 635340,295940 257820,189400 386730,461670 133520,272260 133520,603710 z"
       id="path334"
       style="font-size:3.59567e+06px;line-height:1.25;font-family:Calibri;-inkscape-font-specification:'Calibri, Normal';fill:#ff0000;fill-opacity:1;stroke:#ff0000;stroke-width:968032;stroke-opacity:1" />
    <path
       d="m 121879620,113699620 q 0,71030 -13830,126270 -9200,55240 -32240,94700 -18390,35520 -55250,55240 -32210,15790 -73660,15790 h -3291800 q -64460,0 -115120,-11840 -46030,-15780 -82870,-47350 -32210,-31570 -50620,-90760 -13830,-59180 -13830,-145990 0,-78920 4620,-138110 9210,-59180 32210,-102590 23030,-47350 55280,-90750 36800,-47350 92050,-98650 l 1155590,-1049600 q 400550,-363010 639960,-651060 243990,-288050 372900,-524800 133530,-236750 174950,-430100 41450,-193340 41450,-363020 0,-169670 -64460,-319610 -64450,-153890 -188740,-268320 -119730,-114430 -303890,-181510 -184160,-67080 -423560,-67080 -280820,0 -506430,67080 -220990,67080 -391320,146000 -165770,78920 -280850,146000 -110490,67070 -165770,67070 -32210,0 -59830,-15780 -23010,-15780 -41420,-51290 -13830,-35510 -23040,-94700 -9210,-59190 -9210,-142060 0,-59180 4590,-102590 4620,-43400 13830,-74970 13830,-31570 32240,-59190 18390,-27620 73660,-67080 55250,-43400 188780,-114420 138110,-71030 340690,-138110 207160,-71030 451180,-118370 248580,-47360 520230,-47360 432790,0 755040,106540 326890,102590 538670,284100 216390,181510 322270,422210 105900,240700 105900,512960 0,244640 -50650,489280 -50630,240700 -216370,524800 -161150,280160 -469600,627390 -308480,343290 -819490,793120 l -943820,844410 h 2592010 q 36830,0 69050,19730 36860,15790 59830,51300 27660,35510 36860,90750 13830,51300 13830,122320 z"
       id="path336"
       style="font-size:3.59567e+06px;line-height:1.25;font-family:Calibri;-inkscape-font-specification:'Calibri, Normal';fill:#ff0000;fill-opacity:1;stroke:#ff0000;stroke-width:968032;stroke-opacity:1" />
    <path
       d="m 129301140,113889030 q 0,31560 -13800,55240 -13790,23670 -59860,39460 -46040,15780 -128910,23670 -82840,7890 -220960,7890 -119730,0 -197980,-7890 -73660,-7890 -119730,-23670 -46010,-19730 -73670,-51300 -22970,-31570 -41420,-78920 l -547870,-1203480 q -96670,-205190 -202580,-374860 -101250,-173620 -243990,-295940 -142730,-126260 -336070,-193340 -193360,-71030 -465010,-71030 h -529460 v 2174170 q 0,31560 -23010,55240 -18440,23670 -64450,39460 -41450,11830 -119700,19720 -73660,11840 -188780,11840 -115110,0 -193360,-11840 -73690,-7890 -119700,-19720 -46040,-15790 -64460,-39460 -18440,-23680 -18440,-55240 v -4727140 q 0,-153880 92110,-213070 96690,-63140 202570,-63140 h 1266090 q 225600,0 372930,11840 151910,7890 271610,19730 345280,51300 607720,161780 267050,110480 446590,280160 179540,169670 267030,390630 92070,217030 92070,481400 0,256480 -82870,461660 -78280,201240 -230190,359080 -151940,153890 -363690,268320 -211810,114430 -474220,193340 147290,55240 267020,142050 119710,82860 220960,201240 105910,118380 197990,272260 92070,153900 184180,347240 l 534050,1124570 q 64460,142050 82870,201240 18390,55240 18390,86810 z m -1192400,-3586780 q 0,-299890 -156560,-505070 -156500,-209130 -524840,-299890 -115090,-27620 -262410,-39460 -142740,-11830 -377520,-11830 h -667580 v 1720390 h 773450 q 313070,0 538680,-63140 230190,-67080 382100,-181500 151950,-118380 221020,-276210 73660,-157840 73660,-343290 z"
       id="path338"
       style="font-size:3.59567e+06px;line-height:1.25;font-family:Calibri;-inkscape-font-specification:'Calibri, Normal';fill:#ff0000;fill-opacity:1;stroke:#ff0000;stroke-width:968032;stroke-opacity:1" />
    <path
       id="rect5395"
       style="fill:#ff0000;fill-opacity:1;stroke:#ff0000;stroke-width:724019;stroke-opacity:1"
       d="m 125553090,109479190 h 2437480 v 1834740 h -2437480 z" />
  </g>
  <g
     id="g159"
     transform="translate(22766641,-16626696)">
    <path
       d="m 54220046,113711460 q 0,78920 -32212,134160 -27653,55240 -78281,90760 -46040,35510 -105905,51290 -59865,15780 -119701,15780 h -253200 q -119702,0 -211809,-19720 -87460,-23680 -170330,-78920 -78252,-59190 -161151,-157840 -78252,-98640 -174919,-252530 l -1878437,-2904150 q -147319,-224910 -299256,-469550 -147319,-248590 -276231,-481400 h -9202 q 9202,284100 13817,580040 4589,295940 4589,587940 v 3081710 q 0,27620 -18406,55240 -18410,23670 -64458,39460 -41432,11830 -115092,19720 -69070,11840 -179572,11840 -110479,0 -184139,-11840 -69070,-7890 -110502,-19720 -41433,-15790 -59842,-39460 -18434,-27620 -18434,-55240 v -4711350 q 0,-157840 101298,-224920 101274,-67080 220981,-67080 h 377529 q 133502,0 220982,19730 92095,19730 161139,67080 73660,43410 138114,126270 69074,78920 147322,201240 l 1445641,2241240 q 133519,205190 257809,402480 124350,193350 239433,382750 115083,189400 225606,374850 115082,181520 225576,366970 h 4589 q -9207,-311730 -13797,-647120 0,-339340 0,-651070 v -2769980 q 0,-27630 18416,-51300 18416,-23680 59836,-39460 46039,-19730 115112,-27620 73663,-7900 188775,-7900 101256,0 174948,7900 73663,7890 115083,27620 41450,15780 59836,39460 18445,23670 18445,51300 z"
       id="path318"
       style="font-size:3.59567e+06px;line-height:1.25;font-family:Calibri;-inkscape-font-specification:'Calibri, Normal';fill:#ff0000;fill-opacity:1;stroke:#ff0000;stroke-width:968032;stroke-opacity:1" />
    <path
       d="m 62926100,111379470 q 0,619490 -170359,1116670 -170330,497180 -511019,848360 -336099,347230 -847147,536630 -511019,185460 -1192426,185460 -672170,0 -1164772,-169670 -488014,-173620 -810287,-501120 -317684,-327510 -474217,-812850 -156533,-485340 -156533,-1116680 0,-603710 170330,-1096950 170359,-493220 511048,-836520 340689,-347230 851737,-532680 511047,-189410 1192396,-189410 658402,0 1146386,169670 488014,169680 810287,497180 326892,323560 483425,804960 161151,477450 161151,1096950 z m -833321,47340 q 0,-434040 -92078,-804950 -87460,-374860 -299239,-647120 -207191,-276210 -557087,-430100 -349926,-153890 -865563,-153890 -515608,0 -865534,165730 -349897,165730 -570884,441940 -216369,276200 -313065,647120 -92078,366960 -92078,773380 0,449830 87459,828630 87489,378800 294679,655010 207161,272270 552469,426160 349867,149940 874741,149940 520256,0 874771,-165730 354486,-165720 570854,-445880 216399,-284100 308477,-655010 92078,-370910 92078,-785230 z"
       id="path320"
       style="font-size:3.59567e+06px;line-height:1.25;font-family:Calibri;-inkscape-font-specification:'Calibri, Normal';fill:#ff0000;fill-opacity:1;stroke:#ff0000;stroke-width:968032;stroke-opacity:1" />
    <path
       d="m 70283195,113889030 q 0,31560 -13797,55240 -13826,23670 -59865,39460 -46039,15780 -128909,23670 -82871,7890 -220988,7890 -119701,0 -197953,-7890 -73662,-7890 -119731,-23670 -46039,-19730 -73633,-51300 -23034,-31570 -41450,-78920 l -547879,-1203480 q -96667,-205190 -202571,-374860 -101286,-173620 -243993,-295940 -142735,-126260 -336099,-193340 -193364,-71030 -465009,-71030 h -529434 v 2174170 q 0,31560 -23034,55240 -18416,23670 -64455,39460 -41420,11830 -119702,19720 -73662,11840 -188745,11840 -115112,0 -193393,-11840 -73633,-7890 -119702,-19720 -46039,-15790 -64454,-39460 -18416,-23680 -18416,-55240 v -4727140 q 0,-153880 92078,-213070 96697,-63140 202572,-63140 h 1266088 q 225606,0 372931,11840 151914,7890 271645,19730 345307,51300 607715,161780 267026,110480 446564,280160 179567,169670 267026,390630 92107,217030 92107,481400 0,256480 -82870,461660 -78281,201240 -230224,359080 -151914,153890 -363694,268320 -211779,114430 -474217,193340 147355,55240 267027,142050 119701,82860 221016,201240 105876,118380 197954,272260 92078,153900 184156,347240 l 534052,1124570 q 64455,142050 82871,201240 18415,55240 18415,86810 z m -1192425,-3586780 q 0,-299890 -156533,-505070 -156533,-209130 -524845,-299890 -115083,-27620 -262437,-39460 -142706,-11830 -377491,-11830 h -667580 v 1720390 h 773455 q 313066,0 538642,-63140 230225,-67080 382139,-181500 151914,-118380 220987,-276210 73663,-157840 73663,-343290 z"
       id="path322"
       style="font-size:3.59567e+06px;line-height:1.25;font-family:Calibri;-inkscape-font-specification:'Calibri, Normal';fill:#ff0000;fill-opacity:1;stroke:#ff0000;stroke-width:968032;stroke-opacity:1" />
    <path
       d="m 78022429,113750920 q 36832,86810 36832,142050 4618,51300 -32242,78920 -36802,27620 -124291,35510 -82900,7890 -225577,7890 -142735,0 -230224,-7890 -82870,-3950 -128909,-15780 -41421,-15790 -64455,-39460 -18416,-23670 -36831,-59190 l -511019,-1242940 h -2476929 l -488014,1227160 q -13826,35510 -36831,63130 -23034,23680 -69073,43410 -41450,15780 -124320,23670 -78252,7890 -207161,7890 -133499,0 -220987,-11840 -82871,-7890 -119702,-35510 -32242,-27620 -32242,-78910 4619,-55250 41450,-142060 l 1998123,-4742910 q 18416,-43400 46010,-71030 32242,-27620 87489,-43400 59865,-15790 147324,-19730 92079,-7890 230196,-7890 147325,0 244021,7890 96667,3940 156533,19730 59836,15780 92078,47350 32213,27620 50628,71030 z m -2564388,-4186550 h -4589 l -1026715,2545080 h 2071786 z"
       id="path324"
       style="font-size:3.59567e+06px;line-height:1.25;font-family:Calibri;-inkscape-font-specification:'Calibri, Normal';fill:#ff0000;fill-opacity:1;stroke:#ff0000;stroke-width:968032;stroke-opacity:1" />
    <path
       id="rect5365"
       style="fill:#ff0000;fill-opacity:1;stroke:#ff0000;stroke-width:593753;stroke-opacity:1"
       d="m 58641970,109872020 h 3252591 v 3150040 h -3252591 z" />
    <path
       id="rect5397"
       style="fill:#ff0000;fill-opacity:1;stroke:#ff0000;stroke-width:754614;stroke-opacity:1"
       d="m 66820207,109563770 h 2277770 v 1816420 h -2277770 z" />
    <path
       id="rect5399"
       style="fill:#ff0000;fill-opacity:1;stroke:#ff0000;stroke-width:792313;stroke-opacity:1"
       d="m 75047896,110115980 h 1128942 v 2432730 h -1128942 z" />
  </g>
  <g
     id="g425"
     vectornator:layerName="g425"
     transform="matrix(20646.618,0,0,20646.618,101649650,76777313)"
     style="clip-rule:evenodd;fill:#ff0000;fill-opacity:1;fill-rule:nonzero;stroke:#ff0000;stroke-linecap:round;stroke-linejoin:round;stroke-opacity:1">
    <path
       d="m 578.43,1169.56 c -48.822,-1.11 -63.183,-2.33 -104,-8.82 -51.002,-8.11 -88.415,-17.63 -140.55,-35.79 -24.174,-8.42 -60.606,-26.83 -84.031,-42.45 -39.002,-26.02 -69.355,-77.93 -86.656,-148.198 -5.975,-24.27 -12.108,-77.871 -12.13,-106 -0.005,-6.234 -0.592,-18.378 -1.306,-26.989 -0.713,-8.61 -1.62,-47.91 -2.015,-87.333 -0.395,-39.423 -1.241,-77.378 -1.879,-84.345 -3.606,-39.357 -12.523,-98.876 -18.679,-124.667 -2.1,-8.8 -6.357,-26.8 -9.46,-40 -3.103,-13.2 -8.508,-35.4 -12.011,-49.333 -6.8056,-27.071 -14.2218,-64.539 -20.0572,-101.333 -0.8141,-5.134 -3.1791,-16.537 -5.2555,-25.342 -4.889,-20.731 -7.1319,-34.032 -11.26,-66.776 -6.0804,-48.231 -4.5793,-55.449 13.1634,-63.297 5.1415,-2.274 7.8949,-2.694 13.1208,-2.001 16.6265,2.206 43.5905,15.292 75.5565,36.671 32.197,21.534 88.816,65.041 118.399,90.98 29.137,25.548 111.344,105.37 136.982,133.009 10.614,11.442 14.125,12.181 32.138,6.765 4.438,-1.335 18.238,-4.001 30.667,-5.924 12.428,-1.924 27.397,-4.357 33.263,-5.406 13.123,-2.347 40.316,-5.434 66,-7.491 21.774,-1.744 86.833,-0.798 105.334,1.532 24.104,3.035 76.389,14.326 97.34,21.02 21.314,6.81 23.128,7.189 27.135,5.666 1.83,-0.696 34.421,-32.415 72.426,-70.487 87.821,-87.978 117.915,-115.663 159.675,-146.889 48.6,-36.34 91.75,-58.697 113.3,-58.697 9.15,0 15.03,3.807 19.36,12.523 l 3.23,6.519 -2.87,21.479 c -1.58,11.814 -4.4,30.179 -6.27,40.812 -5.04,28.744 -25.57,131.996 -29.3,147.334 -2.98,12.314 -9.69,48.158 -12.85,68.666 -3.56,23.131 -5.75,34.69 -8.7,45.841 -7.92,29.902 -14.07,62.942 -15.28,82.159 -3.92,61.831 -5.21,88.079 -5.19,105.334 0.01,10.633 -0.57,32.533 -1.29,48.666 -0.73,16.134 -1.94,45.534 -2.71,65.334 -1.49,38.713 -4.27,64.02 -11.42,104 -4.17,23.267 -12.06,54.702 -15.23,60.619 -0.72,1.347 -3.36,8.059 -5.87,14.915 -15.27,41.774 -27.35,61.164 -52.91,84.934 -22.541,20.95 -31.882,27.49 -56.576,39.63 -86.587,42.55 -163.637,59.72 -283.629,63.23 -24.404,0.71 -46.771,1.2 -49.705,1.1 -2.933,-0.11 -24.533,-0.63 -48,-1.17 z"
       fill="#000000"
       fill-rule="nonzero"
       opacity="1"
       stroke="none"
       id="path182"
       style="fill:#ff0000;fill-opacity:1;stroke:#ff0000;stroke-opacity:1"
       sodipodi:nodetypes="csscssssssssssssssssssssssssssccccccccscccscccccc" />
  </g>
</svg>
